<?xml version="1.0" standalone="no"?>
<!DOCTYPE svg PUBLIC "-//W3C//DTD SVG 20010904//EN"
 "http://www.w3.org/TR/2001/REC-SVG-20010904/DTD/svg10.dtd">
<svg version="1.0" xmlns="http://www.w3.org/2000/svg"
 width="460.000000pt" height="330.000000pt" viewBox="0 0 460.000000 330.000000"
 preserveAspectRatio="xMidYMid meet">
<metadata>
Created by potrace 1.15, written by Peter Selinger 2001-2017
</metadata>
<g transform="translate(0.000000,330.000000) scale(0.100000,-0.100000)"
fill="#000000" stroke="none">
<path d="M1250 2970 c-85 -82 -161 -149 -169 -150 -8 0 -11 -3 -8 -7 10 -9
-85 -103 -96 -96 -6 3 -7 2 -4 -4 3 -5 -73 -86 -170 -179 -181 -174 -205 -195
-201 -172 2 7 -3 12 -9 11 -7 -2 -13 5 -13 15 0 14 -2 15 -9 2 -6 -8 -7 -19
-3 -25 4 -5 7 -20 7 -32 1 -16 -7 -23 -28 -27 -20 -4 -27 -10 -24 -20 6 -14
-19 -31 -37 -27 -5 1 -13 -4 -17 -11 -5 -7 -9 38 -9 103 l0 116 25 -5 c16 -3
25 0 25 8 0 7 -7 10 -15 6 -9 -3 -15 0 -15 10 0 8 -5 12 -10 9 -6 -3 -10 4
-10 15 0 16 -5 20 -15 16 -10 -3 -15 1 -15 11 0 13 -3 14 -12 5 -8 -8 -8 -15
1 -26 9 -11 12 -59 9 -180 -3 -157 -4 -166 -27 -190 -13 -14 -28 -23 -32 -20
-5 3 -9 0 -9 -6 0 -13 -30 -46 -30 -33 0 4 -6 -3 -13 -16 -6 -14 -18 -26 -26
-29 -8 -3 -11 0 -7 7 4 6 2 11 -4 11 -8 0 -10 89 -8 325 2 179 0 325 -5 325
-4 0 -7 -156 -7 -346 1 -191 -2 -349 -5 -352 -3 -3 -6 159 -7 359 l-3 364 -5
-375 -5 -375 -4 375 c-2 206 -3 380 -2 385 0 6 -7 15 -17 21 -16 10 -17 -20
-14 -562 l2 -573 -22 4 -23 4 22 -17 c22 -17 23 -25 34 -327 9 -233 16 -314
26 -326 7 -9 30 -21 51 -27 77 -24 329 -92 340 -92 7 0 12 9 12 19 0 19 1 19
62 2 43 -12 63 -23 69 -38 10 -28 8 -27 144 -62 66 -18 131 -37 145 -43 14 -6
32 -10 42 -9 9 1 20 -3 24 -10 4 -8 3 -9 -4 -5 -19 11 -14 -19 5 -36 26 -22
56 -31 50 -16 -2 7 -11 12 -20 12 -9 -1 -18 4 -20 10 -3 7 8 11 29 11 29 0 34
-4 40 -28 3 -15 1 -33 -4 -40 -7 -8 -6 -16 4 -25 8 -7 14 -9 15 -5 0 4 4 0 8
-10 4 -10 10 -17 15 -15 4 2 14 -8 21 -22 13 -23 14 -20 17 50 l2 75 6 -85 6
-85 3 75 c1 41 5 69 8 62 2 -6 9 -10 13 -7 5 3 7 12 4 20 -4 10 0 12 17 8 13
-4 18 -8 12 -10 -7 -3 -9 -11 -6 -19 6 -17 53 -19 53 -1 0 8 4 7 10 -3 5 -8
10 -10 10 -3 0 6 8 10 18 9 15 -3 17 -18 20 -140 2 -110 0 -136 -10 -130 -7 5
7 -13 32 -38 25 -25 47 -44 49 -42 2 2 3 71 2 154 -2 132 0 151 14 157 10 3
20 0 25 -6 4 -7 16 -11 26 -9 18 3 19 -7 22 -176 1 -99 -2 -183 -7 -190 -10
-12 12 -40 23 -29 3 4 6 0 6 -7 0 -7 11 -23 25 -36 l25 -23 0 209 0 209 22 -4
c12 -3 27 0 35 6 9 8 13 8 13 0 0 -6 8 -10 18 -9 9 1 29 0 45 0 l27 -2 2 -262
2 -263 6 235 5 235 5 -235 5 -235 5 245 4 245 6 -245 6 -245 4 240 4 240 6
-240 6 -240 2 238 c2 203 4 237 17 237 8 0 15 5 15 11 0 6 7 3 16 -5 8 -9 20
-14 25 -10 5 3 23 3 39 -1 26 -6 29 -10 24 -33 -4 -21 -3 -24 5 -12 6 8 12 13
13 10 1 -3 5 -102 8 -220 l6 -215 4 210 4 210 6 -210 6 -210 2 209 c2 183 0
212 -15 228 -15 17 -15 18 8 18 19 0 21 -2 9 -10 -12 -8 -11 -10 7 -10 23 0
23 0 26 -212 l3 -213 1 228 c1 126 4 232 7 235 3 3 7 -102 8 -234 l2 -239 6
237 5 238 27 -14 c15 -8 29 -12 32 -8 3 3 6 -2 6 -11 0 -10 -5 -14 -15 -11 -8
4 -15 1 -15 -5 0 -6 7 -11 15 -11 13 0 15 -31 17 -207 l2 -208 6 199 c4 147 8
200 17 204 7 2 13 -1 13 -8 0 -6 -4 -8 -10 -5 -7 4 -9 -62 -8 -192 l2 -198 6
185 6 185 4 -185 4 -185 6 185 6 185 4 -185 4 -185 6 190 5 189 25 0 c14 0 38
-4 53 -8 21 -6 26 -13 22 -27 -6 -19 5 -26 19 -12 3 4 14 7 24 8 15 1 17 -14
16 -169 l0 -171 6 160 6 160 4 -160 4 -160 6 165 6 165 4 -165 4 -165 6 165 6
165 4 -165 4 -165 6 170 6 170 4 -170 4 -170 6 160 c3 88 8 159 13 158 4 -2
16 -3 27 -3 14 0 20 -7 20 -23 0 -17 6 -23 26 -25 20 -1 25 2 20 13 -3 8 -1
15 4 15 6 0 10 -7 10 -16 0 -8 5 -12 10 -9 6 4 8 10 5 15 -5 8 99 -18 265 -66
83 -24 140 -29 171 -16 9 4 112 100 229 214 117 114 216 205 221 202 5 -3 9 1
9 9 0 19 34 49 45 40 4 -5 5 -3 2 3 -4 6 63 79 151 164 449 438 532 524 532
549 0 14 5 130 11 256 5 127 7 334 3 462 -6 201 -9 235 -24 251 -10 10 -57 29
-106 41 -49 13 -100 27 -114 31 -14 5 -88 25 -165 45 -77 21 -187 51 -245 68
-58 16 -121 33 -140 37 -19 5 -71 18 -115 30 -44 12 -120 33 -170 47 -49 13
-115 31 -145 39 -30 9 -89 25 -130 36 -41 11 -88 24 -105 28 -84 23 -219 60
-290 80 -44 12 -120 32 -170 45 -49 13 -124 33 -165 45 -41 11 -115 31 -165
45 -49 13 -126 33 -170 45 -44 13 -118 33 -165 46 -47 12 -119 32 -160 43 -41
11 -100 21 -130 21 l-55 0 -155 -150z m285 101 c16 -6 14 -9 -15 -14 -26 -6
-68 -41 -181 -153 -81 -80 -149 -142 -151 -137 -3 4 -4 3 -2 -4 1 -6 -11 -22
-27 -36 -17 -14 -131 -124 -254 -246 -123 -121 -228 -221 -234 -221 -6 0 -11
5 -11 10 0 6 7 10 15 10 22 0 18 18 -5 25 -11 3 -20 10 -20 14 0 4 143 147
318 317 507 495 449 444 501 443 25 0 55 -4 66 -8z m200 -70 c83 -23 209 -57
280 -76 197 -54 209 -57 220 -61 6 -2 -13 -2 -41 0 -65 6 -162 -7 -206 -28
-18 -9 -67 -48 -107 -86 -55 -51 -77 -66 -84 -57 -6 8 -7 7 -4 -5 4 -12 -50
-72 -194 -212 -111 -108 -205 -194 -210 -190 -5 3 -9 -1 -9 -8 0 -19 -64 -80
-75 -71 -4 5 -5 3 -2 -3 9 -15 -250 -267 -265 -258 -7 4 -8 3 -4 -4 4 -7 3
-12 -2 -12 -12 0 -13 -58 -1 -65 15 -10 10 -25 -5 -19 -11 4 -13 -1 -10 -18 4
-22 4 -22 -6 2 -9 20 -13 22 -20 10 -8 -12 -10 -12 -10 -1 0 11 -3 11 -17 0
-13 -11 -15 -11 -9 -1 5 9 3 13 -5 11 -39 -5 -40 -1 -39 109 1 73 -2 106 -9
105 -6 -2 -11 4 -11 13 0 8 -4 13 -9 10 -5 -3 -11 4 -14 15 -3 12 -10 18 -15
15 -5 -3 -13 4 -18 17 -5 14 -9 -25 -11 -108 -2 -78 -8 -134 -15 -140 -7 -7
-9 -7 -5 1 7 13 -53 15 -69 3 -6 -5 -25 -3 -42 3 l-32 12 1 126 c1 163 5 175
51 175 20 0 40 3 44 8 4 4 0 7 -9 7 -10 0 -14 5 -11 15 4 8 1 15 -5 15 -7 0
-14 -7 -17 -15 -4 -8 -11 -15 -16 -15 -11 0 35 65 66 92 10 10 174 170 363
355 327 321 406 389 442 379 9 -3 84 -23 166 -45z m513 -179 c2 -6 9 -9 16 -6
11 4 34 -1 184 -42 31 -8 91 -25 132 -36 89 -24 134 -36 175 -48 17 -4 73 -20
125 -33 174 -46 395 -106 425 -116 17 -5 77 -22 135 -36 118 -30 160 -44 160
-55 0 -4 -62 -67 -138 -141 -75 -74 -282 -276 -460 -449 -177 -173 -330 -318
-340 -322 -9 -4 -13 -7 -8 -7 5 -1 1 -10 -9 -21 -10 -11 -22 -17 -28 -13 -5 3
-7 1 -3 -5 3 -6 -11 -25 -31 -42 -43 -36 -43 -36 -193 5 -99 27 -156 43 -277
76 -40 10 -108 29 -150 40 -43 12 -118 33 -168 46 -49 14 -103 28 -120 33 -16
5 -70 19 -120 33 -49 14 -150 41 -224 60 -73 20 -143 44 -154 54 -14 12 -18
13 -12 3 8 -13 6 -13 -7 -2 -10 8 -14 20 -11 29 5 13 2 15 -16 10 -17 -4 -21
-2 -17 9 3 8 0 13 -7 11 -7 -1 -11 5 -9 14 1 9 -4 19 -13 23 -8 3 -15 12 -15
20 0 22 288 291 308 289 11 -2 12 0 3 3 -9 5 3 23 40 60 38 39 55 50 62 41 6
-8 7 -7 4 4 -4 12 64 84 225 240 201 195 309 290 285 252 -4 -6 -3 -14 3 -18
5 -3 10 3 10 14 0 15 10 22 43 29 55 12 190 8 195 -6z m1371 -333 c19 -7 31
-18 31 -28 0 -10 -48 -64 -107 -121 -153 -147 -478 -464 -685 -669 -98 -96
-180 -172 -183 -169 -3 2 59 67 137 143 409 397 773 753 794 775 31 32 30 46
-3 64 -33 18 -27 20 16 5z m71 -8 c0 -4 10 -6 23 -4 12 2 29 -1 37 -6 12 -9 5
-20 -39 -65 -30 -30 -59 -52 -64 -49 -6 3 -7 1 -4 -4 4 -6 -54 -69 -129 -141
-75 -72 -293 -285 -486 -473 -312 -306 -351 -341 -361 -324 -10 19 -10 19 -17
0 -4 -11 -9 -15 -13 -8 -8 12 369 390 384 386 5 -2 9 1 9 6 0 6 84 92 187 193
482 471 466 454 458 477 -4 12 -2 21 4 21 6 0 11 -4 11 -9z m572 -152 c10 -5
18 -13 18 -18 0 -5 -170 -174 -377 -377 -287 -280 -652 -638 -758 -742 -6 -6
-85 31 -85 40 0 5 -6 6 -12 3 -16 -9 360 365 792 788 332 324 335 327 370 321
19 -3 43 -10 52 -15z m32 -239 c7 -176 2 -229 -16 -180 -8 23 -17 16 -151
-116 -78 -78 -171 -169 -207 -203 -76 -72 -324 -315 -567 -555 -139 -137 -173
-176 -173 -198 0 -15 -4 -29 -10 -33 -5 -3 -10 65 -12 180 l-3 186 360 352
c198 194 450 441 560 549 110 109 203 198 206 198 3 0 9 -81 13 -180z m-4
-420 c-5 -107 -9 -218 -10 -247 0 -46 -4 -56 -33 -85 -19 -18 -207 -202 -418
-408 -211 -206 -450 -439 -530 -518 l-146 -143 5 248 c2 136 8 252 13 258 5 5
6 -29 2 -84 -5 -82 -4 -93 10 -90 8 2 179 164 379 359 586 573 620 605 630
602 5 -1 7 1 4 6 -3 5 15 28 39 52 l45 44 0 96 c0 83 5 118 16 107 2 -1 -1
-90 -6 -197z m-3862 -4 l2 -186 -27 6 c-31 8 -43 21 -37 39 6 14 -64 14 -87 0
-12 -8 -12 -6 0 8 7 9 20 17 27 17 8 0 14 7 14 15 0 8 -4 15 -8 15 -5 0 -8 17
-6 38 1 20 -1 55 -4 77 -5 36 -6 37 -13 15 -6 -20 -7 -17 -8 18 -1 23 4 42 9
42 6 0 10 7 10 15 0 8 5 15 10 15 5 0 9 3 9 8 -5 31 2 37 41 34 26 -3 40 0 40
8 0 6 6 10 13 8 9 -4 13 -53 15 -192z m55 132 c6 -4 15 -4 20 -1 5 3 3 9 -4
14 -10 6 -10 9 -2 9 7 0 17 -8 22 -17 10 -17 12 -17 26 1 8 11 15 14 15 8 0
-7 7 -12 15 -12 16 0 20 -35 9 -65 -5 -13 -8 -14 -15 -3 -6 9 -9 9 -9 1 0 -6
7 -18 15 -27 16 -16 21 -51 6 -42 -5 3 -12 -6 -16 -21 -4 -16 -2 -29 4 -31 7
-2 6 -11 -1 -27 -8 -19 -7 -27 6 -40 10 -10 16 -33 16 -61 0 -39 -2 -44 -22
-43 -13 0 -17 3 -10 6 6 2 12 14 11 26 0 21 -1 21 -9 2 l-9 -20 0 20 c-1 17
-3 18 -11 5 -8 -12 -12 -12 -18 -2 -6 9 -18 11 -35 6 l-27 -6 1 188 c1 104 4
178 6 164 3 -14 10 -28 16 -32z m477 -98 c7 11 10 11 10 2 0 -7 6 -12 13 -11
32 4 46 -2 41 -16 -4 -8 -1 -15 5 -15 8 0 11 -54 11 -177 0 -98 -4 -173 -8
-168 -7 10 -32 16 -66 16 -52 0 -54 8 -55 178 -1 88 1 172 5 187 7 26 8 26 21
8 12 -16 15 -17 23 -4z m435 -24 c66 -18 199 -55 295 -80 96 -26 238 -65 315
-86 317 -87 366 -100 381 -100 8 0 17 -6 19 -12 6 -16 163 -23 184 -9 9 5 25
5 43 -1 27 -9 28 -12 14 -27 -9 -10 -16 -20 -16 -24 0 -3 26 -13 58 -22 31 -9
64 -19 72 -22 8 -3 22 -7 30 -8 8 -1 58 -16 111 -34 53 -17 102 -31 110 -32 8
0 37 -11 64 -24 l50 -24 -38 -1 c-21 0 -80 11 -130 25 -51 14 -108 30 -127 35
-19 6 -93 26 -165 45 -71 19 -146 40 -165 45 -19 5 -78 21 -130 35 -150 41
-173 47 -200 55 -14 4 -88 25 -165 45 -166 44 -376 101 -425 115 -19 6 -84 23
-144 39 -76 21 -113 36 -123 51 -8 11 -19 17 -25 14 -7 -5 -9 -1 -5 9 3 10 2
17 -2 17 -5 0 -12 -6 -14 -12 -3 -8 -6 -6 -6 5 -1 9 3 17 7 17 4 0 61 -15 127
-34z m-292 -20 c9 1 17 -1 17 -5 0 -4 20 -7 45 -6 l45 1 0 -182 c0 -101 -3
-185 -8 -187 -4 -3 -19 -3 -35 0 -20 4 -27 11 -27 29 0 20 -5 24 -27 23 -16 0
-22 -3 -15 -6 6 -2 12 -9 12 -15 0 -7 -5 -7 -13 1 -8 6 -16 8 -19 5 -3 -3 -6
80 -6 183 -1 103 2 181 6 172 4 -9 15 -15 25 -13z m3081 -57 c-33 -33 -67 -59
-79 -59 -14 0 -16 -3 -7 -8 9 -6 -25 -44 -110 -126 -68 -65 -275 -267 -460
-448 -264 -258 -338 -325 -338 -307 0 15 20 42 58 78 31 30 226 219 432 420
536 523 532 520 548 514 9 -4 -4 -24 -44 -64z m-2849 1 c9 8 40 3 111 -16 177
-48 278 -75 334 -90 30 -9 87 -24 125 -34 39 -10 106 -29 150 -41 44 -12 118
-32 165 -45 47 -12 121 -33 165 -45 82 -22 218 -59 315 -85 156 -42 210 -57
265 -71 33 -9 63 -21 67 -27 4 -6 8 -95 8 -198 l0 -186 -27 9 c-16 5 -109 31
-208 58 -382 104 -513 140 -597 162 -49 13 -88 27 -88 32 0 4 -4 6 -8 3 -12
-7 -191 41 -218 59 -17 11 -24 12 -27 2 -3 -6 -6 -1 -6 13 -1 20 -3 22 -11 10
-9 -13 -10 -13 -11 0 -1 8 0 21 1 29 1 9 -4 12 -14 8 -11 -4 -16 -1 -16 11 0
14 -2 14 -9 3 -5 -8 -7 -20 -4 -27 2 -6 0 -15 -6 -19 -7 -3 -8 0 -5 9 6 16
-16 23 -30 9 -10 -11 -36 -12 -36 -2 0 5 -5 8 -12 7 -8 -2 -13 14 -15 45 -4
42 -2 47 17 47 11 0 20 5 20 12 0 6 -3 8 -7 5 -3 -4 -11 3 -17 15 -6 13 -21
28 -34 34 -12 6 -19 13 -16 16 3 3 1 9 -5 13 -8 4 -10 -19 -9 -72 1 -77 1 -78
8 -23 l7 55 1 -51 c1 -35 -3 -56 -13 -64 -13 -11 -15 -1 -15 84 0 78 -3 96
-15 96 -9 0 -12 6 -9 15 4 8 1 15 -5 15 -17 0 -13 -40 4 -46 11 -5 15 -24 15
-80 0 -61 -3 -72 -15 -68 -10 4 -15 0 -16 -12 0 -11 -3 -14 -6 -6 -2 6 -9 10
-14 6 -5 -3 -9 0 -9 6 0 7 -7 10 -15 6 -13 -5 -15 10 -15 100 0 90 2 105 15
100 10 -4 14 0 12 14 -4 24 -17 38 -18 19 -1 -8 -5 -3 -9 11 -5 16 -9 -27 -11
-115 l-3 -140 -5 146 c-5 125 -9 150 -25 168 -10 11 -23 18 -27 15 -5 -3 -9 3
-9 13 0 15 -2 16 -10 3 -6 -10 -4 -20 6 -31 11 -12 14 -44 13 -135 0 -65 -4
-128 -9 -139 -5 -11 -9 -15 -9 -10 -1 13 -61 37 -61 25 0 -13 -42 -3 -52 12
-4 7 -8 19 -8 26 0 6 -4 12 -10 12 -12 0 -14 312 -3 324 4 4 9 2 11 -4 3 -8 8
-8 17 0z m-625 -61 c0 9 5 9 23 0 12 -7 23 -12 24 -12 11 4 42 -11 37 -18 -3
-5 -10 -7 -15 -4 -5 4 -9 -1 -9 -9 0 -18 16 -21 26 -5 11 19 24 -12 24 -58 0
-24 -3 -43 -7 -43 -5 0 -18 -3 -30 -6 -18 -5 -23 -2 -23 13 0 10 6 25 13 32
10 12 8 13 -8 6 -40 -15 -55 -17 -55 -8 0 5 -7 10 -15 10 -9 0 -14 -6 -11 -13
3 -8 0 -11 -10 -7 -15 5 -20 95 -8 128 6 14 8 14 25 -1 12 -11 19 -13 19 -5z
m-369 -82 c9 -12 21 -17 28 -12 8 4 14 -1 18 -14 3 -12 10 -21 15 -21 6 0 8 7
5 15 -4 8 -2 17 3 20 11 7 24 -38 18 -57 -3 -7 4 -21 14 -30 17 -17 18 -17 18
8 0 20 4 24 19 19 13 -4 20 0 24 14 3 13 13 19 26 18 25 -2 29 -17 4 -17 -12
0 -14 -3 -6 -11 8 -8 17 -8 31 0 10 6 22 7 26 4 3 -3 6 -44 6 -90 0 -64 -3
-83 -12 -78 -7 4 -3 -2 10 -12 23 -19 23 -23 20 -160 -2 -78 -6 -144 -9 -148
-4 -3 -62 10 -130 29 -68 19 -136 37 -150 40 l-27 6 -6 157 c-3 87 -8 204 -11
260 l-5 102 28 -11 c15 -7 34 -21 43 -31z m429 -262 c0 -84 -4 -134 -9 -126
-5 8 -14 10 -21 6 -9 -6 -5 -12 14 -22 24 -13 26 -18 26 -87 l0 -74 -32 8
c-18 4 -40 10 -48 13 -8 3 -28 8 -44 12 l-29 6 7 112 c4 61 10 114 14 117 12
9 15 33 15 107 l-1 71 54 -1 54 -1 0 -141z m120 -90 l5 200 3 -202 c1 -111 5
-204 10 -206 4 -3 6 82 4 188 l-3 192 38 6 c68 12 93 9 93 -11 0 -10 -5 -23
-12 -30 -9 -9 -9 -12 0 -12 8 0 12 -56 15 -207 l3 -208 -1 218 c0 119 3 217 8
217 4 0 6 -100 5 -222 -3 -223 -3 -223 -25 -226 -16 -2 -23 2 -23 13 0 9 -4
14 -10 10 -5 -3 -7 -12 -4 -19 5 -14 -14 -12 -91 10 -11 3 -33 8 -48 11 -34 6
-57 55 -57 119 0 47 14 67 23 32 4 -12 10 -19 14 -15 4 4 13 -3 20 -15 10 -19
13 8 15 172 l2 195 6 -205 5 -205 5 200z m197 159 c-9 -9 18 -34 36 -34 9 0
18 6 20 13 4 9 8 8 17 -3 9 -11 13 -12 17 -3 3 10 8 9 19 -2 13 -12 15 -53 12
-249 -2 -129 -6 -237 -10 -241 -3 -4 -16 -4 -29 0 -16 6 -18 9 -8 16 21 13 3
22 -20 9 -15 -8 -21 -8 -21 0 0 6 -4 9 -8 6 -4 -2 -14 -1 -22 4 -20 13 -29
490 -9 490 7 0 10 -3 6 -6z m239 -69 c-3 -9 0 -15 9 -15 8 0 15 5 15 10 0 6 5
10 11 10 5 0 8 -4 5 -8 -3 -5 9 -9 25 -9 29 0 53 -19 43 -34 -2 -4 3 -9 11
-13 13 -4 15 -41 15 -236 0 -147 -4 -230 -10 -230 -5 0 -10 5 -10 11 0 6 -9 9
-19 6 -10 -2 -25 0 -32 5 -12 7 -11 9 1 7 30 -3 50 1 50 10 0 5 -15 8 -32 7
-18 -2 -41 1 -51 6 -12 6 -23 6 -31 -1 -7 -6 -16 -8 -19 -4 -9 8 -9 456 -1
477 3 9 11 16 16 16 6 0 8 -7 4 -15z m242 -62 c57 -2 53 18 51 -252 -1 -239
-2 -248 -20 -244 -10 3 -19 11 -19 17 0 7 -7 13 -15 13 -9 0 -14 -6 -11 -14 3
-7 2 -13 -3 -13 -5 0 -11 10 -15 23 -8 32 -7 494 2 481 4 -5 17 -10 30 -11z
m1564 -143 c1 -88 2 -175 2 -192 1 -31 -1 -33 -36 -36 l-38 -3 0 180 c0 98 -3
186 -6 195 -5 13 2 16 35 16 l41 0 2 -160z m-1412 90 c0 9 42 10 76 0 1 0 1
-8 0 -17 0 -10 5 -17 12 -15 6 1 12 -5 12 -14 0 -10 6 -14 15 -10 13 5 15 -24
15 -224 l0 -230 -25 0 c-13 0 -29 8 -34 18 -6 9 -11 11 -11 5 0 -7 -7 -13 -15
-13 -8 0 -12 6 -9 14 6 16 -22 30 -31 16 -4 -6 -13 -10 -21 -10 -12 0 -14 39
-14 246 0 218 2 245 15 234 11 -10 15 -10 15 0z m306 -62 l74 -21 0 -234 c0
-216 -1 -233 -17 -232 -11 0 -13 3 -5 6 9 3 12 49 12 179 0 151 -2 174 -16
174 -8 0 -13 4 -9 9 3 5 1 12 -5 16 -5 3 -10 -3 -10 -15 0 -11 7 -23 15 -26
12 -5 15 -32 15 -154 0 -119 -3 -152 -15 -164 -19 -19 -19 -26 3 -43 9 -8 12
-12 5 -9 -6 4 -25 8 -43 10 -38 4 -49 14 -30 26 14 9 7 12 -16 9 -4 0 -11 5
-15 13 -7 10 -9 9 -9 -4 0 -9 -5 -20 -11 -24 -8 -4 -9 1 -4 16 6 19 4 22 -9
17 -14 -6 -16 17 -16 233 0 275 -11 252 106 218z m160 -43 c31 -8 58 -16 60
-18 1 -1 5 -65 8 -142 2 -77 2 -125 -1 -107 -3 23 -9 32 -18 28 -8 -3 -15 2
-17 12 -3 15 -4 15 -11 -1 -5 -14 -2 -20 13 -24 19 -5 20 -12 18 -112 -3 -113
-3 -113 -55 -96 -16 5 -19 255 -3 255 6 0 10 5 10 11 0 5 -4 7 -10 4 -5 -3
-10 1 -10 10 0 11 -5 15 -16 11 -8 -3 -12 -2 -9 4 3 6 -1 20 -9 32 -15 20 -24
148 -11 148 2 0 30 -7 61 -15z m224 -61 c52 -14 109 -30 125 -34 17 -5 64 -17
105 -29 41 -11 100 -27 130 -35 72 -19 197 -54 235 -64 l30 -9 0 -246 c0 -135
-3 -248 -6 -251 -2 -3 -47 6 -99 20 -52 14 -138 37 -190 50 -52 14 -106 33
-120 42 -14 9 -28 15 -32 14 -5 -1 -8 3 -8 10 0 20 -31 47 -48 41 -11 -5 -14
-2 -9 10 3 9 2 19 -3 22 -6 4 -11 -4 -11 -17 -1 -16 -4 -12 -9 12 l-7 35 -2
-44 c-1 -59 -10 -48 -12 17 -1 29 -6 52 -10 52 -5 0 -6 -27 -3 -59 l7 -59 -56
15 c-38 11 -57 22 -60 35 -3 11 -15 22 -26 25 -19 5 -21 13 -21 73 0 60 3 69
20 75 11 4 18 11 14 16 -3 5 -10 7 -15 4 -5 -4 -9 -1 -9 6 0 7 -8 22 -19 33
-15 17 -20 44 -26 150 l-7 129 24 -7 c12 -3 66 -18 118 -32z m722 -416 c-2
-151 -7 -247 -14 -255 -6 -7 -23 -13 -39 -13 -28 0 -28 0 -25 63 2 34 4 149 4
255 l2 192 38 0 37 0 -3 -242z"/>
<path d="M1508 3004 c-45 -24 -52 -48 -24 -81 22 -26 30 -28 95 -28 63 0 73 3
97 26 22 22 24 30 15 48 -26 47 -125 67 -183 35z"/>
<path d="M2087 1304 c-4 -4 -7 -33 -7 -64 l0 -57 93 -27 c131 -37 127 -38 127
34 0 69 0 69 -117 96 -34 8 -68 17 -75 19 -8 3 -17 2 -21 -1z"/>
<path d="M10 2955 c-3 -5 -3 -273 0 -595 l5 -585 5 575 5 575 3 -577 c1 -318
5 -578 10 -578 4 0 7 263 7 585 0 448 -3 584 -12 581 -6 -3 -13 3 -15 12 -2 9
-6 13 -8 7z"/>
</g>
</svg>
