<?xml version="1.0" standalone="no"?>
<!DOCTYPE svg PUBLIC "-//W3C//DTD SVG 20010904//EN"
 "http://www.w3.org/TR/2001/REC-SVG-20010904/DTD/svg10.dtd">
<svg version="1.0" xmlns="http://www.w3.org/2000/svg"
 width="862.000000pt" height="576.000000pt" viewBox="0 0 862.000000 576.000000"
 preserveAspectRatio="xMidYMid meet">
<metadata>
Created by potrace 1.15, written by Peter Selinger 2001-2017
</metadata>
<g transform="translate(0.000000,576.000000) scale(0.100000,-0.100000)"
fill="#000000" stroke="none">
<path d="M3730 5615 c-223 -16 -347 -30 -500 -56 -63 -11 -144 -24 -180 -29
-77 -11 -175 -31 -308 -64 -54 -13 -115 -27 -137 -31 -22 -3 -95 -24 -162 -46
-67 -21 -127 -39 -133 -39 -36 0 -563 -211 -665 -267 -16 -8 -97 -52 -180 -95
-154 -82 -173 -94 -358 -216 -90 -60 -111 -70 -128 -62 -10 6 -19 16 -19 22 0
6 7 5 18 -3 14 -11 13 -10 -2 9 -11 12 -20 22 -20 22 -1 0 -2 -16 -3 -34 0
-24 4 -36 16 -39 9 -3 3 -5 -13 -6 -21 -1 -27 -5 -22 -16 3 -8 1 -15 -4 -15
-5 0 -12 9 -15 20 -3 11 -11 20 -16 20 -13 0 -11 -18 4 -23 8 -4 4 -12 -12
-25 -13 -11 -21 -24 -17 -31 10 -16 -19 -14 -33 3 -9 11 -6 15 14 20 14 4 25
11 25 17 0 6 -7 8 -16 5 -9 -3 -25 -6 -36 -6 -17 0 -20 -5 -16 -36 3 -30 1
-35 -13 -31 -21 6 -54 -27 -44 -43 4 -6 16 -8 28 -5 21 6 21 5 3 -9 -25 -20
-78 -71 -94 -91 -10 -11 -17 -13 -26 -6 -10 8 -18 5 -31 -9 -10 -11 -15 -23
-12 -26 4 -4 9 1 13 10 3 9 10 13 15 10 13 -8 -41 -54 -63 -54 -10 0 -27 -5
-37 -12 -16 -10 -17 -14 -6 -25 8 -7 19 -13 25 -13 6 0 -7 -26 -30 -59 -25
-35 -48 -58 -58 -57 -13 1 -17 -7 -16 -31 1 -23 -2 -30 -12 -26 -9 3 -14 -2
-15 -13 0 -14 -2 -15 -6 -4 -6 17 -32 40 -45 40 -4 0 -8 -9 -8 -21 0 -16 4
-19 20 -14 14 5 20 2 20 -9 0 -9 -4 -16 -10 -16 -15 0 -12 -30 3 -31 6 0 2 -5
-10 -11 -24 -11 -31 -28 -13 -28 7 0 6 -5 -1 -13 -6 -6 -25 -12 -42 -12 -16 0
-32 -5 -34 -11 -5 -15 45 -24 52 -10 3 6 2 -2 -1 -19 -3 -16 -12 -33 -19 -38
-8 -4 -12 -15 -8 -25 4 -13 2 -13 -10 3 -16 19 -16 19 -17 -11 0 -29 -15 -54
-32 -54 -4 0 -8 7 -8 16 0 8 -5 12 -11 9 -6 -4 -8 -13 -5 -21 3 -8 1 -14 -4
-14 -17 0 -11 -15 11 -28 25 -16 37 -8 19 13 -11 13 -10 14 4 9 22 -8 20 -36
-6 -141 -23 -87 -23 -94 -23 -798 1 -685 1 -713 21 -787 12 -42 18 -77 15 -76
-20 2 -31 -4 -31 -16 0 -8 -6 -16 -12 -19 -7 -2 -10 -7 -7 -11 10 -11 39 5 39
21 0 8 5 11 10 8 15 -9 12 -42 -5 -49 -23 -9 -18 -26 8 -23 16 1 21 -3 19 -15
-2 -10 1 -18 6 -18 12 0 30 -42 25 -57 -2 -7 -11 -9 -19 -6 -9 3 -14 -2 -14
-15 0 -14 7 -19 27 -19 33 0 56 -30 48 -61 -4 -17 -2 -23 7 -20 23 8 72 -70
70 -110 -2 -30 -1 -33 12 -23 10 8 16 9 21 1 3 -5 -1 -13 -9 -16 -8 -3 -18
-14 -21 -25 -6 -17 -21 -19 -238 -22 l-232 -2 243 -3 c133 -1 242 -6 242 -11
0 -5 11 -8 25 -8 14 0 25 3 25 8 0 5 5 9 10 9 6 0 10 -7 10 -15 0 -8 -4 -15
-10 -15 -15 0 -12 -17 6 -35 12 -11 20 -13 27 -6 8 8 19 3 39 -16 15 -15 28
-31 28 -36 0 -5 -9 1 -20 14 l-19 24 -1 -37 0 -38 -302 -3 -303 -2 338 -3
c314 -2 341 -3 363 -21 13 -10 20 -21 17 -25 -4 -3 -15 2 -26 11 -18 17 -19
17 -16 -7 4 -26 25 -33 47 -17 17 13 34 -4 38 -39 4 -36 22 -54 34 -34 6 9 5
17 -3 22 -8 5 -9 8 -1 8 11 0 48 -47 42 -52 -2 -1 -190 -5 -418 -8 l-415 -5
408 -3 c354 -2 407 -4 407 -17 0 -8 5 -15 10 -15 6 0 10 7 10 15 0 8 5 15 11
15 6 0 8 -9 4 -22 l-6 -23 18 23 18 22 18 -20 c9 -11 17 -24 17 -29 0 -5 6
-12 13 -14 6 -3 -199 -7 -458 -9 l-470 -3 447 -2 c418 -3 448 -4 449 -21 0 -9
3 -12 5 -5 3 7 12 9 21 6 8 -3 19 0 24 8 6 10 10 5 15 -19 5 -23 11 -31 20
-28 8 4 20 8 27 11 8 3 26 -7 41 -22 16 -15 33 -28 39 -28 15 0 51 -25 61 -42
5 -9 2 -11 -9 -7 -11 5 -14 2 -9 -10 4 -12 19 -16 54 -16 32 0 50 -5 53 -14 3
-8 1 -16 -5 -18 -8 -3 -7 -10 1 -26 10 -18 9 -22 -3 -22 -8 0 -17 6 -19 13 -4
9 -7 9 -14 0 -7 -10 -144 -13 -604 -16 l-594 -2 677 -3 c597 -2 677 -4 672
-17 -4 -8 -1 -15 4 -15 6 0 13 -6 15 -13 2 -6 3 1 1 16 -5 34 19 33 24 -1 4
-23 18 -30 24 -11 3 8 10 6 20 -5 9 -9 25 -17 35 -18 10 -2 -317 -5 -727 -8
l-745 -5 739 -3 738 -2 -6 -24 c-5 -19 -2 -23 17 -22 17 1 21 6 19 24 -3 22
-3 22 24 -3 19 -18 35 -24 50 -21 13 4 73 -18 165 -59 79 -36 149 -65 155 -65
7 0 45 -14 85 -31 79 -34 400 -139 425 -139 8 0 67 -16 132 -35 132 -39 523
-119 652 -134 47 -6 150 -19 230 -30 80 -10 217 -25 305 -31 88 -7 165 -16
171 -21 6 -5 14 -6 18 -2 4 4 4 -1 0 -11 -7 -17 -5 -17 24 -2 40 21 102 21
102 1 0 -17 9 -19 29 -6 9 6 22 6 32 0 11 -6 20 -5 24 1 3 5 12 7 20 3 8 -3
15 -1 15 4 0 6 56 11 133 12 102 1 139 -2 161 -14 26 -14 30 -14 42 2 13 17
14 17 8 0 -3 -9 -2 -17 4 -17 6 0 12 6 15 13 3 9 9 9 27 -1 19 -12 24 -12 31
0 7 10 9 10 9 0 0 -9 12 -6 41 8 23 12 44 19 47 16 3 -3 0 -6 -7 -6 -7 0 -9
-5 -6 -10 8 -14 65 -9 65 6 0 16 69 12 80 -5 7 -12 12 -12 23 -3 7 7 17 9 20
5 4 -3 7 1 7 10 0 24 27 21 33 -3 7 -28 27 -25 27 5 0 14 6 25 13 25 19 0 42
-18 34 -27 -5 -4 -12 -1 -17 7 -5 8 -12 11 -16 8 -12 -12 28 -43 58 -44 25 -2
33 6 29 29 0 4 4 7 9 7 6 0 10 6 10 13 0 19 186 42 206 26 8 -7 18 -9 21 -5 4
4 1 11 -7 16 -12 8 -12 10 -1 10 8 0 20 -8 28 -17 13 -16 14 -16 10 -2 -4 13
1 16 19 15 13 0 24 -5 24 -9 0 -5 4 -6 9 -3 5 4 11 1 13 -6 3 -8 8 -7 18 4 13
14 16 14 26 0 10 -14 15 -12 38 12 24 26 46 33 260 76 128 27 271 59 317 73
46 14 107 31 134 37 74 16 298 87 395 125 47 19 127 50 179 70 52 20 100 39
105 44 6 4 65 33 131 64 162 75 319 165 523 300 100 66 331 267 424 369 101
110 273 371 297 450 5 18 22 65 36 103 56 147 58 166 62 870 5 661 0 797 -33
928 -20 80 -73 213 -108 272 -16 28 -37 66 -47 86 -31 63 -167 238 -257 332
-171 177 -405 354 -657 497 -88 49 -490 250 -501 250 -4 0 -45 17 -93 39 -83
37 -269 101 -511 175 -152 47 -432 111 -600 136 -381 59 -466 70 -595 81 -210
17 -953 20 -1175 4z m1165 -68 c423 -43 587 -69 920 -149 408 -97 733 -214
1080 -389 283 -142 470 -270 685 -470 199 -185 318 -353 407 -574 65 -160 88
-318 72 -501 -14 -173 -28 -226 -100 -389 -104 -237 -350 -514 -649 -730 -177
-129 -558 -333 -755 -405 -159 -58 -422 -144 -563 -184 -173 -49 -557 -130
-692 -146 -418 -51 -538 -61 -801 -72 -162 -6 -304 -8 -315 -3 -10 4 -26 9
-34 9 -8 1 -15 9 -15 18 0 10 -7 24 -15 33 -14 13 -16 13 -17 -7 0 -13 1 -17
4 -10 8 20 22 4 16 -19 -5 -16 -8 -18 -15 -7 -8 11 -10 11 -15 -1 -5 -11 -7
-11 -14 0 -6 10 -11 11 -16 3 -5 -6 -29 -11 -55 -13 -42 -2 -47 0 -42 16 5 17
5 17 -6 0 -11 -18 -13 -18 -31 2 -21 22 -39 27 -39 12 0 -5 5 -11 11 -13 6 -2
-22 -5 -61 -6 -40 -1 -77 1 -82 4 -6 4 -43 8 -82 10 -39 2 -88 6 -108 9 -35 6
-37 8 -31 36 7 36 -2 37 -33 4 -28 -30 -34 -31 -34 -5 0 25 -13 26 -36 3 -13
-13 -19 -14 -22 -5 -2 6 -10 12 -18 12 -9 0 -12 -5 -9 -10 3 -5 -1 -10 -11
-10 -13 0 -14 3 -4 15 12 15 6 35 -11 35 -5 0 -9 -6 -9 -14 0 -21 -21 -31 -31
-15 -6 10 -9 11 -9 2 0 -22 -17 -14 -24 10 -6 22 -6 22 -22 2 -13 -17 -16 -18
-24 -5 -8 12 -11 13 -19 1 -6 -9 -11 -10 -15 -2 -4 6 -18 8 -31 5 -13 -3 -30
-2 -37 3 -7 4 -24 9 -38 9 -14 1 -35 2 -46 3 -19 1 -21 6 -17 38 3 28 1 34 -6
23 -8 -12 -11 -12 -11 -1 0 9 -6 11 -17 6 -10 -4 -24 -8 -30 -8 -20 -1 -15
-17 5 -17 14 0 15 -2 2 -10 -11 -7 -18 -4 -25 11 -6 11 -14 16 -18 13 -4 -4
-7 -2 -7 4 0 7 -7 12 -15 12 -8 0 -15 -7 -15 -16 0 -8 4 -13 8 -10 4 2 14 1
21 -3 7 -5 1 -8 -18 -9 -21 0 -31 4 -31 14 0 16 -16 19 -24 5 -7 -11 -48 -2
-58 13 -6 8 -11 6 -17 -3 -8 -12 -13 -12 -24 -3 -8 7 -22 10 -30 6 -9 -3 -23
3 -34 15 -18 22 -39 29 -27 9 5 -8 2 -9 -12 -4 -10 5 -27 11 -36 13 -10 3 -18
13 -18 22 0 19 -40 24 -53 7 -6 -8 -10 -7 -14 2 -2 6 -22 12 -44 12 -31 0 -37
3 -32 16 4 10 0 20 -10 26 -10 5 -17 16 -17 25 0 13 -3 14 -11 6 -9 -9 -8 -18
4 -36 15 -23 15 -24 -1 -23 -27 2 -44 24 -37 48 6 23 6 23 -10 3 -14 -17 -17
-18 -25 -5 -8 13 -10 12 -10 -2 0 -22 -13 -23 -30 -3 -7 9 -21 13 -31 10 -15
-5 -19 -1 -19 20 0 15 -6 33 -14 40 -12 12 -15 12 -20 -2 -4 -9 -1 -20 6 -25
7 -4 9 -8 3 -9 -5 0 -20 -2 -32 -3 -23 -3 -28 7 -25 46 1 10 -2 17 -6 17 -21
-4 -31 3 -26 16 4 8 1 15 -5 15 -18 0 -13 -30 11 -63 21 -29 21 -30 2 -23 -10
5 -64 25 -119 46 -401 153 -832 418 -1079 664 -219 218 -356 439 -421 683 -18
67 -36 159 -40 205 l-7 83 836 -5 c460 -3 836 -5 836 -5 0 1 -19 19 -41 40
-26 26 -37 32 -30 18 6 -12 11 -26 11 -32 0 -8 -234 -11 -779 -11 -834 0 -803
-2 -784 46 4 12 2 15 -8 12 -8 -3 -13 -17 -12 -33 1 -15 -1 -24 -5 -21 -3 4
-7 22 -7 41 l-2 34 751 1 c412 0 752 3 755 5 2 3 -329 5 -737 5 -536 0 -742 3
-742 11 0 6 -6 9 -13 6 -10 -4 -12 3 -9 24 l4 29 717 2 716 3 -703 2 c-615 3
-702 5 -702 18 0 8 -4 15 -10 15 -11 0 -1 32 14 42 6 4 311 7 677 8 626 0 667
-1 665 -17 0 -10 7 -19 19 -21 11 -2 23 -9 27 -16 6 -8 8 -8 8 0 0 7 -15 25
-32 41 -18 16 -47 45 -65 65 l-32 37 2 -27 c2 -20 9 -28 25 -30 12 -2 22 -8
22 -13 0 -5 -252 -9 -640 -9 l-640 0 6 25 c5 20 3 24 -10 19 -12 -4 -16 0 -16
16 0 19 1 20 16 6 21 -22 34 -20 34 4 0 13 -7 20 -20 20 -25 0 -25 1 0 45 11
20 17 41 14 47 -4 6 1 8 14 4 24 -8 37 17 22 44 -6 11 -6 21 -1 24 11 7 23
-37 15 -57 -3 -8 2 -17 10 -20 18 -7 20 5 7 50 -7 22 -6 33 2 37 8 3 6 9 -5
19 -17 13 -16 16 10 50 29 39 61 52 42 18 -7 -13 -7 -22 0 -26 5 -3 10 3 10
14 0 12 5 21 11 21 5 0 9 8 7 18 -2 11 3 27 11 36 12 14 12 19 2 26 -9 5 -10
10 -2 14 6 4 11 3 11 -3 0 -7 8 -7 24 1 20 8 26 20 28 52 3 36 6 41 26 39 12
-2 22 2 22 7 0 6 -6 10 -12 10 -7 0 -1 12 15 25 15 13 32 35 37 47 l9 23 0
-22 c1 -16 7 -23 22 -23 18 0 20 4 14 30 -4 19 -3 30 4 30 6 0 11 7 11 15 0 8
4 15 9 15 5 0 11 -7 15 -15 7 -19 26 -20 26 -1 0 8 6 16 13 19 6 2 8 8 4 13
-5 5 -14 1 -22 -9 -9 -13 -15 -15 -20 -7 -9 15 44 63 61 56 7 -3 14 5 16 17 4
21 5 21 17 -5 9 -16 21 -26 33 -25 18 1 17 4 -7 25 -15 12 -25 29 -22 36 3 8
38 38 79 69 277 208 611 387 938 504 353 126 642 203 975 262 230 41 363 57
605 76 113 8 221 17 240 19 19 2 206 3 415 2 273 -2 428 -7 550 -19z m3063
-1296 c140 -178 225 -347 273 -537 29 -116 33 -144 33 -279 0 -137 -3 -162
-33 -280 -59 -236 -171 -434 -368 -652 -118 -130 -343 -321 -470 -398 -322
-196 -407 -240 -713 -368 -424 -176 -1111 -344 -1565 -382 -93 -8 -215 -19
-270 -24 -55 -5 -185 -13 -289 -17 -155 -5 -190 -4 -197 7 -6 10 -9 11 -9 1 0
-9 -34 -12 -145 -11 -80 0 -145 5 -145 9 0 5 7 7 15 4 8 -4 15 -2 15 4 0 6 -6
13 -12 15 -8 3 -6 6 5 6 9 1 17 -6 17 -14 0 -8 4 -15 9 -15 5 0 16 7 25 15 8
8 19 15 25 15 6 0 8 -7 5 -15 -8 -19 12 -20 23 -1 5 9 29 16 63 19 30 2 -45 4
-168 5 -147 1 -221 -1 -217 -8 3 -5 1 -10 -4 -10 -6 0 -11 5 -11 10 0 6 -95
10 -264 10 l-265 0 -21 30 c-12 16 -17 30 -12 30 6 0 12 -6 15 -12 2 -7 7 -10
11 -7 3 3 4 14 0 23 -9 24 -39 15 -39 -11 0 -30 -12 -38 -31 -22 -13 11 -18
11 -21 2 -7 -20 -23 -15 -23 6 0 11 -5 23 -12 27 -8 5 -9 2 -5 -9 8 -21 -22
-24 -41 -5 -10 10 -15 10 -23 -2 -8 -12 -9 -10 -4 8 4 13 2 22 -4 22 -6 0 -11
-5 -11 -11 0 -5 -4 -7 -10 -4 -6 3 -10 1 -10 -4 0 -6 -4 -11 -10 -11 -5 0 -10
7 -10 15 0 8 -5 15 -11 15 -6 0 -8 -7 -5 -16 4 -10 2 -13 -6 -8 -6 4 -23 9
-37 11 -14 2 -35 6 -46 8 -11 2 -27 4 -35 4 -32 2 -43 17 -30 41 13 24 4 43
-10 20 -5 -8 -7 -17 -5 -20 7 -11 -51 -5 -63 7 -18 17 -39 16 -45 -1 -6 -15
-47 -11 -47 4 0 4 -10 6 -22 5 -13 -1 -41 3 -63 10 -35 11 -4 13 220 14 177 1
265 -3 272 -10 8 -8 17 -7 34 2 16 8 24 9 27 1 2 -8 10 -8 28 0 18 9 30 8 48
-2 15 -7 34 -10 48 -6 48 15 111 18 119 5 6 -10 11 -10 21 -1 8 6 29 9 48 8
19 -2 71 -7 115 -11 44 -5 87 -9 97 -10 9 -1 24 -8 34 -16 13 -11 18 -11 21
-1 6 15 93 17 93 2 0 -6 11 -8 25 -4 27 7 33 -4 13 -24 -9 -9 -8 -12 4 -12 9
0 19 7 22 16 4 9 13 14 21 10 8 -3 15 -1 15 4 0 19 56 10 74 -12 17 -20 20
-20 30 -6 9 15 11 15 21 1 10 -14 13 -14 27 1 11 10 34 16 68 16 44 0 52 -3
62 -25 6 -14 17 -24 24 -23 17 4 56 -43 50 -59 -4 -9 3 -13 22 -13 25 0 24 3
-31 58 l-58 59 218 6 c120 4 286 14 368 22 83 8 221 22 308 30 87 9 237 31
335 49 97 19 197 37 221 40 157 23 834 234 999 311 29 14 55 25 57 25 2 0 57
26 122 59 259 129 421 229 620 380 84 65 322 306 373 380 108 153 199 330 233
454 64 228 59 508 -12 707 -35 97 -68 170 -98 218 -17 26 -37 61 -46 77 -16
32 -91 137 -136 191 -14 17 -2 5 28 -25 29 -31 83 -94 119 -140z m-7568 -536
c4 -3 6 -16 5 -30 -2 -14 1 -27 6 -31 5 -3 9 -48 9 -100 0 -126 14 -215 56
-351 58 -188 171 -378 332 -558 99 -110 158 -164 307 -278 55 -42 114 -87 130
-100 56 -44 310 -189 455 -259 172 -83 464 -202 559 -228 23 -6 52 -22 65 -35
14 -14 32 -25 41 -25 8 0 15 -7 15 -15 0 -22 17 -18 23 4 4 18 9 19 41 9 19
-6 33 -15 30 -19 -6 -10 31 -49 46 -49 6 0 11 8 11 18 1 15 2 15 6 0 5 -21 34
-32 44 -17 4 7 14 9 23 6 9 -4 16 -2 16 4 0 5 11 3 24 -6 13 -8 29 -13 37 -11
20 7 80 -7 81 -19 0 -5 13 -17 27 -26 23 -15 29 -15 48 -3 20 13 22 12 16 -3
-4 -11 -3 -14 5 -9 7 4 12 2 12 -3 0 -6 5 -11 11 -11 6 0 8 9 4 20 -8 24 2 25
74 8 28 -6 51 -15 51 -20 0 -5 9 -7 20 -3 34 11 90 -5 90 -26 0 -18 -12 -19
-256 -19 l-256 0 6 28 c4 15 3 23 -1 17 -9 -12 -43 -13 -61 -1 -7 4 -16 5 -19
2 -3 -3 -12 -1 -20 6 -7 6 -16 8 -19 5 -9 -8 31 -44 44 -39 7 2 12 -1 12 -7 0
-20 -48 -11 -222 43 -209 66 -369 123 -461 165 -38 17 -73 31 -78 31 -17 0
-362 172 -449 224 -102 61 -303 198 -345 235 -16 15 -47 39 -67 54 -55 41
-225 213 -296 300 -118 146 -214 314 -260 457 -58 176 -64 224 -59 413 3 95
10 193 17 219 10 43 13 46 37 42 15 -3 30 -7 33 -9z m-30 -785 c79 -171 155
-287 291 -439 149 -167 276 -275 495 -422 181 -121 320 -197 581 -313 188 -84
471 -187 620 -226 40 -11 120 -33 179 -50 60 -18 135 -36 167 -41 32 -5 69
-17 82 -25 13 -9 28 -14 32 -11 4 3 16 -6 26 -19 22 -30 14 -31 -21 -3 -23 18
-27 19 -30 5 -4 -19 -44 -31 -69 -21 -14 5 -15 3 -6 -6 8 -8 67 -11 202 -10
114 1 191 -2 191 -7 0 -6 11 -13 24 -16 13 -3 32 -9 41 -12 14 -6 16 -3 10 15
-6 19 -4 22 12 17 10 -3 32 -8 48 -12 30 -8 30 -8 5 -14 -14 -3 -26 -14 -28
-23 -5 -27 32 -21 54 8 12 16 24 23 34 19 8 -4 30 -6 48 -5 20 1 32 -3 32 -11
0 -9 3 -8 10 2 8 13 10 12 10 -4 0 -15 3 -16 15 -6 13 11 14 10 8 -6 -7 -18
-6 -18 17 -3 26 16 60 15 60 -2 0 -5 9 -9 20 -9 11 0 20 5 20 11 0 8 11 9 33
4 17 -3 63 -9 101 -11 39 -3 76 -10 83 -16 9 -7 17 -7 28 2 13 10 15 9 15 -9
0 -11 5 -21 10 -21 6 0 10 7 10 16 0 12 8 14 33 11 17 -2 41 -8 51 -12 13 -6
21 -5 24 3 2 7 13 12 25 12 18 0 19 -2 7 -10 -13 -9 -12 -12 4 -25 27 -20 39
-19 31 4 -9 29 14 36 37 11 11 -12 26 -19 33 -16 8 3 16 0 18 -7 3 -8 10 -5
21 8 12 16 17 17 24 7 6 -9 18 -11 35 -6 31 7 35 20 10 27 -10 3 38 5 107 6
119 1 126 0 126 -19 0 -11 -4 -20 -8 -20 -4 0 -8 -4 -8 -10 0 -20 19 -9 31 18
l13 29 200 7 c194 6 545 40 739 70 50 8 128 20 172 26 44 7 130 25 190 40 61
15 128 31 150 34 53 9 334 83 410 108 343 114 455 160 740 300 292 144 490
275 705 467 224 200 398 438 484 660 19 48 36 93 39 101 4 8 5 -190 3 -440
l-3 -455 -30 -120 c-41 -161 -64 -214 -174 -400 -50 -85 -167 -233 -244 -308
-346 -338 -734 -567 -1362 -801 -67 -25 -126 -46 -132 -46 -5 0 -78 -20 -163
-44 -256 -74 -543 -136 -741 -161 -31 -4 -37 -2 -35 11 2 10 -4 19 -12 21 -13
4 -13 3 0 -6 12 -9 11 -11 -8 -11 -13 0 -20 4 -17 10 3 5 0 7 -9 4 -8 -3 -16
-15 -18 -27 -2 -17 -10 -21 -43 -22 -22 0 -42 -3 -45 -7 -3 -4 -35 -9 -70 -11
-36 -2 -59 -2 -52 0 20 7 14 22 -8 20 -11 -1 -18 -7 -16 -13 3 -8 -6 -7 -26 3
-28 14 -32 14 -59 -6 -31 -23 -49 -27 -49 -10 0 6 7 9 15 5 16 -6 21 9 6 18
-16 10 -42 -6 -37 -21 4 -11 1 -13 -15 -8 -11 4 -25 3 -32 -2 -17 -13 -59 -14
-74 -2 -13 12 -37 3 -28 -11 3 -4 -3 -7 -13 -6 -9 0 -21 7 -25 14 -11 17 -27
15 -27 -3 0 -8 -7 -15 -16 -15 -8 0 -13 4 -10 9 8 12 -3 41 -15 41 -5 0 -8
-10 -6 -22 2 -13 2 -18 0 -11 -7 19 -64 13 -61 -6 3 -14 -17 -17 -137 -24 -77
-4 -198 -5 -270 -3 -71 3 -169 6 -217 6 -77 0 -88 2 -89 18 0 10 -3 12 -6 5
-11 -28 -63 -3 -63 31 0 8 -6 13 -13 10 -7 -2 -23 5 -36 17 -12 11 -25 19 -27
16 -7 -7 28 -42 55 -57 42 -22 23 -32 -46 -26 -38 4 -133 11 -213 16 -165 10
-667 92 -860 140 -345 85 -515 139 -845 268 -109 42 -340 155 -366 178 -8 8
-20 14 -26 14 -6 0 -18 10 -27 22 -13 20 -15 20 -9 3 6 -18 5 -18 -10 -6 -9 7
-14 17 -11 22 10 17 -16 48 -43 51 -22 2 -28 8 -28 26 0 35 -31 52 -97 52 -34
0 -58 4 -58 10 0 6 -8 10 -18 8 -11 -2 -16 3 -14 14 2 12 -3 15 -16 11 -13 -3
-21 2 -25 16 -4 18 0 20 49 23 45 3 52 5 44 18 -8 12 -12 12 -18 3 -5 -8 -27
-12 -55 -11 -39 2 -47 6 -47 22 0 20 0 20 -15 0 -11 -14 -14 -15 -15 -4 0 13
-1 13 -10 0 -7 -11 -10 -11 -10 -2 0 7 -4 10 -10 7 -5 -3 -10 1 -10 9 0 9 7
16 15 16 8 0 15 5 15 10 0 6 20 10 45 10 25 0 45 4 45 9 0 4 -22 6 -49 3 -26
-2 -58 1 -70 7 -15 8 -21 9 -21 1 0 -7 -7 -5 -15 4 -9 8 -22 13 -31 9 -21 -8
-56 26 -48 49 6 19 -10 25 -21 8 -12 -20 -45 14 -45 47 l0 33 65 0 c36 0 65 4
65 8 0 13 -164 2 -172 -12 -6 -8 -8 -8 -8 2 0 6 -6 12 -14 12 -20 0 -31 20
-17 29 13 9 4 41 -11 41 -6 0 -7 -7 -4 -16 3 -9 -11 -2 -35 17 -33 26 -39 36
-34 56 5 21 3 24 -14 18 -11 -3 -22 -1 -26 5 -4 6 16 10 59 10 42 0 66 -4 68
-12 3 -9 9 -8 22 5 17 16 13 17 -66 17 -70 0 -85 3 -95 18 -7 12 -8 24 -2 33
5 8 9 19 9 24 0 6 -5 3 -10 -5 -8 -12 -10 -11 -10 5 0 24 -18 45 -37 45 -18 0
-16 -13 7 -40 11 -12 17 -27 13 -33 -4 -7 -8 -6 -11 3 -3 8 -11 22 -19 31 -16
18 -14 89 2 101 21 15 -6 20 -29 5 -27 -18 -38 -11 -51 32 -5 15 -3 27 6 33
10 6 10 11 3 14 -6 3 -9 17 -6 31 4 22 2 25 -13 20 -13 -5 -16 -3 -11 8 3 8 1
15 -5 15 -5 0 -8 -10 -7 -22 2 -13 -1 -24 -7 -25 -5 -1 -9 6 -8 15 1 9 -5 21
-14 27 -8 6 -13 18 -12 26 2 7 -4 25 -13 39 -32 48 -69 201 -78 325 -5 66 -9
289 -9 495 1 317 3 367 13 325 7 -27 32 -93 56 -145z"/>
<path d="M5448 5195 c-38 -21 -45 -52 -19 -78 31 -31 141 -31 172 -1 59 59
-68 125 -153 79z"/>
<path d="M3935 4650 c-134 -12 -491 -76 -560 -100 -33 -12 -94 -30 -135 -41
-207 -56 -515 -213 -668 -341 -43 -35 -93 -71 -114 -81 -42 -20 -118 -100
-142 -151 -9 -19 -16 -48 -16 -65 0 -18 -9 -48 -19 -69 -34 -67 -63 -344 -38
-368 4 -4 7 -31 7 -61 l0 -53 -751 0 c-414 0 -754 -2 -757 -5 -3 -3 2 -5 10
-5 9 0 19 -6 21 -12 4 -10 6 -10 6 0 1 9 157 12 745 12 684 0 746 -1 761 -17
16 -16 16 -17 -1 -30 -14 -10 -19 -10 -26 0 -5 7 -8 2 -8 -15 0 -22 4 -26 18
-21 9 3 22 12 28 19 9 11 13 9 22 -11 6 -14 9 -32 6 -40 -4 -9 0 -15 9 -15 8
0 17 -7 21 -15 5 -14 -76 -15 -719 -13 -398 2 -720 -1 -716 -5 4 -4 321 -8
704 -7 680 0 696 0 707 -19 5 -11 7 -26 4 -35 -4 -10 0 -14 11 -12 19 3 41 34
31 43 -3 4 -6 1 -6 -5 0 -7 -4 -12 -10 -12 -5 0 -6 7 -3 17 4 10 2 14 -5 9 -6
-3 -14 -1 -18 5 -5 9 0 10 17 6 13 -4 27 -7 30 -7 4 0 13 -14 20 -32 10 -24
10 -33 1 -36 -14 -4 -16 -32 -3 -32 5 0 11 6 14 13 2 6 8 0 12 -15 8 -31 15
-34 33 -16 9 9 17 5 36 -15 14 -15 30 -27 35 -27 6 0 8 -7 5 -15 -4 -9 0 -15
7 -16 8 -1 20 -2 28 -3 26 -2 23 -25 -6 -39 l-28 -15 29 -7 c19 -5 31 -3 36 6
7 10 12 10 23 1 7 -7 17 -9 20 -5 4 3 15 -3 25 -15 11 -12 21 -20 23 -17 3 2
5 -5 5 -15 0 -11 -5 -20 -11 -20 -5 0 -3 -5 5 -10 19 -12 53 -13 46 -1 -4 5 2
8 11 6 10 -2 22 -4 26 -4 5 -1 5 -6 2 -12 -4 -5 0 -18 8 -27 8 -9 16 -24 19
-32 3 -11 10 -6 22 15 l17 30 -5 -35 c-4 -25 -3 -31 4 -20 9 13 10 13 11 0 0
-8 5 -4 9 10 6 19 8 20 9 6 1 -12 6 -16 17 -12 8 3 13 2 10 -3 -3 -4 -1 -24 5
-44 11 -41 38 -50 40 -14 1 16 2 18 6 5 2 -10 9 -18 14 -18 6 0 8 9 4 19 -7
23 3 31 29 21 14 -4 16 -9 8 -14 -19 -12 -14 -26 15 -37 21 -8 28 -7 35 5 7
12 17 11 70 -5 51 -16 67 -18 90 -8 51 21 35 42 -59 79 -153 59 -267 117 -306
154 -21 20 -42 34 -47 31 -6 -4 -10 0 -10 8 0 8 -8 23 -17 34 -10 10 -14 13
-10 6 5 -6 6 -17 2 -22 -8 -13 -45 9 -45 26 0 7 -7 13 -15 13 -13 0 -14 4 -5
20 9 16 7 26 -8 45 l-19 25 0 -25 c0 -14 3 -22 8 -19 5 3 9 1 9 -5 0 -19 -23
-24 -32 -7 -5 9 -18 16 -28 16 -28 0 -45 36 -22 46 9 4 20 6 25 6 16 -4 5 16
-24 44 -26 23 -29 25 -20 7 12 -24 5 -53 -13 -53 -7 0 -22 10 -34 23 -17 19
-19 25 -8 40 7 9 19 17 26 17 8 0 4 10 -10 25 -25 26 -42 26 -20 0 8 -9 8 -15
2 -15 -10 0 -28 38 -24 51 0 4 -8 15 -18 24 -22 20 -28 7 -7 -14 8 -9 8 -12 0
-7 -7 4 -13 -3 -16 -16 -3 -16 -5 -13 -6 11 -1 24 -5 32 -15 28 -8 -3 -17 1
-20 9 -3 8 -2 13 3 10 5 -3 11 0 14 8 3 8 -13 31 -38 55 -61 58 -70 91 -70
251 0 133 1 136 34 208 25 54 48 85 85 117 33 28 63 67 85 110 49 94 118 152
355 290 158 93 441 190 699 239 317 60 328 61 687 61 358 0 508 -14 604 -54
43 -19 86 -28 236 -51 165 -25 348 -91 559 -201 134 -71 216 -128 306 -215 99
-97 140 -150 187 -247 54 -109 71 -183 66 -287 -6 -101 -54 -238 -96 -274 -55
-46 -103 -103 -128 -153 -38 -76 -114 -141 -279 -239 -167 -99 -430 -208 -562
-234 -26 -5 -88 -18 -138 -30 -49 -12 -112 -26 -140 -31 -204 -40 -711 -62
-926 -39 -130 13 -153 8 -147 -34 3 -18 13 -22 73 -30 111 -13 706 -11 815 4
100 13 206 32 404 74 121 26 397 115 451 146 17 9 46 23 65 31 86 34 346 196
390 244 14 15 44 36 67 47 51 24 135 106 158 155 10 20 18 52 19 72 1 20 9 50
18 66 48 93 63 278 32 402 -29 117 -127 277 -235 384 -156 155 -411 302 -689
397 -41 14 -106 40 -145 58 -84 40 -241 73 -374 80 -53 2 -121 9 -151 14 -70
14 -667 21 -785 10z"/>
<path d="M1385 4320 c3 -5 -4 -19 -15 -30 -16 -16 -25 -19 -34 -11 -7 6 -32 9
-54 7 -23 -2 -42 -1 -42 4 0 13 -49 8 -61 -7 -9 -10 -9 -17 -1 -25 9 -9 12 -7
13 8 0 10 3 13 6 6 2 -6 9 -9 15 -6 5 4 2 -5 -7 -20 -10 -14 -21 -26 -26 -26
-5 0 -9 -5 -9 -11 0 -6 7 -9 15 -5 9 3 15 0 15 -9 0 -8 -7 -15 -15 -15 -15 0
-22 -19 -7 -21 61 -7 262 2 262 12 0 5 -4 9 -8 9 -4 0 -8 8 -9 18 -1 9 -4 27
-8 40 -5 16 -3 22 8 22 8 0 14 -8 13 -17 -1 -13 5 -17 19 -15 20 2 20 2 1 -13
-11 -8 -17 -18 -13 -21 3 -4 14 1 23 11 16 16 18 15 41 -11 12 -15 23 -33 23
-41 0 -8 6 -13 14 -11 16 3 56 -38 56 -58 0 -7 9 -12 20 -11 16 1 -3 24 -82
104 -80 81 -109 103 -130 103 -20 0 -26 4 -22 15 5 13 9 13 23 3 11 -8 10 -5
-3 10 -19 22 -32 30 -21 12z"/>
<path d="M2193 3499 c-6 -6 -298 -8 -811 -7 -441 2 -802 0 -802 -4 0 -5 11 -8
24 -8 13 0 27 -6 30 -12 5 -10 7 -10 12 0 4 9 172 12 790 12 483 0 784 4 784
9 0 15 -16 21 -27 10z"/>
<path d="M7210 2953 c-87 -35 -52 -123 50 -123 82 0 129 61 80 105 -20 18
-102 30 -130 18z"/>
<path d="M3283 2633 c-19 -7 -16 -37 5 -55 23 -21 127 -53 249 -78 156 -31
223 -26 223 17 0 26 -40 48 -155 84 -101 31 -281 49 -322 32z"/>
<path d="M2972 2060 c-16 -26 -15 -33 3 -26 22 8 18 -4 -10 -30 -18 -16 -25
-19 -25 -9 0 17 -2 17 -24 9 -9 -3 -16 -11 -16 -16 0 -6 8 -7 18 -3 12 4 11 1
-5 -15 -31 -28 -30 -42 2 -30 20 8 27 5 44 -16 11 -14 22 -25 25 -25 21 2 26
-1 26 -15 0 -8 -4 -12 -10 -9 -5 3 -10 1 -10 -4 0 -15 27 -14 33 2 4 10 6 10
6 0 1 -7 8 -13 17 -13 13 0 14 3 5 14 -9 11 -6 12 14 8 15 -2 25 0 25 7 0 6 7
11 16 11 11 0 14 -6 9 -20 -5 -16 -2 -20 15 -20 16 0 20 4 16 16 -5 14 -4 15
8 5 16 -13 36 -7 36 11 0 5 -6 8 -14 5 -23 -9 -36 16 -27 49 l8 29 6 -27 c11
-42 24 -33 25 17 1 25 -2 45 -8 45 -5 0 -10 -8 -10 -17 0 -11 -3 -14 -8 -8 -4
6 -19 16 -35 23 -15 6 -27 15 -26 19 4 22 -3 32 -21 30 -11 -1 -20 -6 -20 -12
0 -7 -3 -7 -8 0 -5 8 -56 35 -65 35 -1 0 -8 -9 -15 -20z"/>
<path d="M4490 1213 c0 -6 6 -14 13 -16 6 -3 -354 -6 -800 -6 -536 -1 -813 2
-813 9 0 6 -4 10 -10 10 -14 0 -12 -12 6 -35 11 -13 18 -16 21 -8 3 10 186 12
806 13 440 0 803 3 806 5 3 3 -3 13 -12 22 -9 10 -17 12 -17 6z"/>
<path d="M4534 1158 c1 -16 8 -24 24 -26 12 -2 22 -8 22 -13 0 -5 -317 -9
-810 -9 -445 0 -810 -3 -810 -7 0 -5 371 -7 824 -5 776 2 824 1 822 -15 0 -10
7 -19 19 -21 11 -2 23 -9 27 -16 4 -6 8 -6 8 -1 0 6 -29 38 -64 73 -53 53 -63
59 -62 40z"/>
<path d="M3060 1030 c0 -5 -8 -7 -17 -3 -17 5 -17 5 0 -8 15 -12 146 -13 820
-9 l802 5 -792 3 c-517 1 -793 6 -793 12 0 6 -4 10 -10 10 -5 0 -10 -4 -10
-10z"/>
<path d="M3140 933 c8 -3 18 -11 23 -17 5 -8 9 -7 15 1 6 10 178 13 783 16
l774 2 -805 2 c-443 1 -798 -1 -790 -4z"/>
<path d="M4810 891 c5 -11 10 -24 10 -30 0 -8 -246 -12 -802 -13 l-803 -3 832
-5 832 -5 -36 38 c-42 42 -48 45 -33 18z"/>
<path d="M4890 797 l0 -27 -795 2 c-437 2 -795 0 -795 -4 0 -5 11 -8 24 -8 13
0 27 -6 29 -12 4 -10 7 -10 14 -1 7 10 182 13 794 15 l786 3 -29 30 -28 30 0
-28z"/>
<path d="M3472 598 c-15 -6 -16 -7 0 -7 9 -1 19 -7 21 -13 4 -10 6 -10 6 0 1
9 168 12 800 12 712 0 800 -2 805 -15 3 -9 12 -15 20 -13 16 3 56 -38 56 -58
0 -7 9 -12 20 -11 17 1 13 9 -27 49 -25 26 -50 45 -55 42 -5 -3 -7 -1 -6 5 3
12 -1610 21 -1640 9z"/>
<path d="M5239 463 c6 -12 11 -24 11 -27 0 -4 -365 -5 -810 -4 -446 2 -810 0
-810 -3 0 -4 8 -8 18 -10 9 -2 383 -2 830 1 l813 5 -32 30 c-25 24 -29 26 -20
8z"/>
<path d="M70 640 c0 -5 5 -10 11 -10 6 0 9 -9 6 -20 -5 -20 0 -20 788 -20 623
0 794 -3 797 -12 3 -9 9 -8 22 5 17 16 -23 17 -789 17 -557 0 -804 3 -800 10
7 12 -12 40 -26 40 -5 0 -9 -4 -9 -10z"/>
<path d="M1035 430 c-434 -3 -785 -8 -778 -13 6 -4 18 -4 27 -1 12 5 16 -1 17
-22 l1 -29 10 27 10 28 779 0 c428 0 779 4 779 8 0 5 -12 8 -27 8 -16 -1 -383
-3 -818 -6z"/>
</g>
</svg>
