<?xml version="1.0" standalone="no"?>
<!DOCTYPE svg PUBLIC "-//W3C//DTD SVG 20010904//EN"
 "http://www.w3.org/TR/2001/REC-SVG-20010904/DTD/svg10.dtd">
<svg version="1.0" xmlns="http://www.w3.org/2000/svg"
 width="600.000000pt" height="534.000000pt" viewBox="0 0 600.000000 534.000000"
 preserveAspectRatio="xMidYMid meet">
<metadata>
Created by potrace 1.15, written by Peter Selinger 2001-2017
</metadata>
<g transform="translate(0.000000,534.000000) scale(0.100000,-0.100000)"
fill="#000000" stroke="none">
<path d="M120 5316 c5 -13 6 -27 3 -30 -4 -3 5 -6 20 -6 29 0 69 -43 60 -66
-3 -9 2 -14 16 -14 27 0 62 -35 55 -55 -4 -10 0 -15 13 -15 28 0 64 -37 56
-57 -5 -12 -2 -15 9 -10 20 7 68 -42 60 -62 -3 -10 0 -12 12 -8 19 8 56 -29
56 -56 0 -13 5 -17 15 -14 20 8 56 -23 58 -50 1 -16 8 -23 23 -23 25 0 54 -29
54 -56 0 -13 7 -20 23 -21 27 -2 58 -38 50 -58 -3 -10 1 -15 14 -15 28 0 64
-37 56 -57 -5 -12 -2 -15 9 -10 9 3 23 -2 34 -14 17 -18 10 -19 -402 -22
l-419 -2 427 -3 c395 -2 427 -3 421 -19 -5 -12 -2 -15 10 -10 20 8 57 -28 57
-55 0 -11 6 -18 13 -17 27 3 37 -2 52 -31 l15 -30 -497 -3 -498 -2 516 -3
c485 -2 517 -3 532 -20 10 -10 17 -27 17 -38 0 -13 7 -20 23 -21 27 -2 58 -38
50 -58 -3 -10 2 -16 18 -17 13 -2 -241 -5 -566 -8 l-590 -5 603 -3 c473 -1
602 -5 603 -14 1 -7 0 -19 -1 -27 -1 -8 4 -12 14 -8 8 3 20 -1 26 -9 11 -12
-70 -14 -616 -16 l-629 -3 640 -5 c620 -5 640 -6 637 -24 -3 -13 1 -17 11 -13
8 3 19 1 25 -5 16 -16 3 -38 -22 -37 -11 0 -15 3 -8 6 19 8 14 23 -8 23 -11 0
-20 -7 -20 -15 0 -13 -79 -15 -628 -18 l-627 -2 641 -3 c352 -1 644 -5 647 -9
11 -10 -23 -42 -39 -36 -9 3 -14 -1 -14 -12 0 -9 -5 -13 -11 -9 -7 4 -10 1 -7
-7 7 -18 -10 -51 -22 -44 -5 3 -12 1 -15 -5 -4 -6 -16 -8 -27 -4 -17 5 -19 3
-13 -15 l6 -21 -573 -2 -573 -3 555 -2 c482 -3 555 -5 563 -18 4 -9 12 -13 17
-10 10 6 8 -15 -3 -32 -6 -10 -131 -13 -568 -13 -307 0 -559 -3 -559 -7 0 -5
237 -7 526 -5 375 2 523 -1 519 -8 -8 -12 25 -41 37 -34 5 3 8 -2 8 -11 0 -8
-7 -18 -15 -21 -8 -4 -15 -15 -15 -26 0 -11 -5 -28 -10 -39 -9 -16 -14 -17
-32 -6 -16 9 -22 9 -25 0 -4 -10 -94 -13 -405 -13 -221 0 -399 -2 -397 -5 3
-2 193 -5 422 -5 404 -1 417 -1 407 -19 -6 -12 -17 -17 -29 -14 -15 4 -18 -1
-19 -23 0 -26 1 -27 14 -9 8 10 14 14 14 8 0 -6 -6 -16 -14 -23 -8 -6 -16 -26
-18 -43 -2 -23 -9 -33 -23 -35 -20 -3 -20 -3 -1 12 11 9 16 19 11 23 -4 5 -10
2 -12 -4 -3 -7 -11 -13 -19 -13 -8 0 -14 -4 -14 -10 0 -6 -102 -10 -285 -10
-157 0 -285 -3 -285 -7 0 -5 126 -7 281 -5 281 3 309 0 309 -32 0 -6 -5 -4
-10 4 -5 8 -10 10 -10 4 0 -5 4 -14 10 -20 6 -6 3 -26 -9 -58 -18 -49 -37 -69
-55 -59 -5 3 -6 1 -2 -5 7 -12 -13 -62 -26 -62 -4 0 -8 -4 -8 -10 0 -21 19 -9
32 20 17 40 35 46 30 9 -2 -16 -10 -29 -18 -29 -17 0 -19 -20 -1 -21 6 0 2 -5
-10 -11 -16 -8 -24 -23 -29 -56 -4 -30 -3 -47 4 -50 7 -2 7 -13 1 -35 -17 -56
-24 -186 -23 -442 0 -266 10 -347 58 -517 13 -46 27 -96 30 -113 16 -68 152
-377 182 -414 7 -8 44 32 44 46 0 7 -10 30 -23 51 -30 49 -105 222 -129 297
-58 182 -70 231 -89 345 -23 143 -35 405 -24 534 6 74 9 85 21 75 8 -7 17 -9
21 -5 4 3 -1 12 -11 19 -17 12 -13 47 5 47 5 0 9 10 9 23 0 18 -2 19 -10 7 -8
-12 -10 -9 -10 12 0 15 5 30 10 33 6 4 10 12 9 18 -6 47 2 97 16 97 8 0 19 9
25 20 6 11 16 20 23 20 8 0 7 -4 -3 -10 -8 -5 -11 -12 -7 -16 4 -4 15 0 25 9
16 15 17 14 14 -23 -2 -22 -7 -38 -11 -36 -4 3 -8 -19 -9 -47 -1 -28 -8 -55
-15 -59 -9 -6 -9 -10 2 -17 11 -7 9 -10 -8 -16 -15 -4 -21 -15 -21 -36 0 -16
3 -29 8 -29 4 0 7 -100 7 -222 0 -226 15 -378 52 -523 48 -191 177 -505 208
-505 29 0 27 29 -8 92 -114 205 -201 542 -214 828 -7 164 0 240 23 240 20 0
18 18 -3 23 -11 3 -7 5 10 6 20 1 27 6 27 21 0 24 -16 26 -28 4 -7 -12 -9 -6
-9 24 0 26 4 39 10 35 6 -4 8 0 4 10 -3 10 -2 17 3 17 6 0 10 -4 10 -10 0 -5
5 -10 10 -10 6 0 10 9 10 20 0 18 -10 24 -35 21 -5 -1 0 7 13 18 25 21 29 36
8 28 -15 -6 -11 19 16 112 14 46 37 67 39 34 0 -10 7 0 15 22 9 25 13 61 10
97 -4 54 -3 59 22 70 14 7 28 19 30 27 3 8 0 11 -7 7 -16 -10 -13 0 6 19 14
14 14 18 2 26 -8 5 136 9 359 9 330 0 372 -2 372 -16 0 -8 -4 -12 -10 -9 -5 3
-10 -2 -11 -12 0 -11 -3 -13 -6 -5 -2 6 -9 10 -14 6 -5 -3 -9 -1 -9 5 0 6 -7
8 -15 5 -20 -8 -19 -26 1 -22 24 4 25 -37 2 -62 -11 -11 -16 -25 -13 -30 11
-18 -6 -102 -20 -96 -8 3 -16 -2 -19 -10 -9 -24 -8 -26 14 -19 17 5 20 2 20
-23 0 -17 -6 -32 -13 -35 -9 -3 -9 -8 -1 -17 16 -16 5 -53 -12 -46 -11 4 -13
-1 -8 -19 4 -16 -1 -31 -15 -46 -25 -27 -22 -44 8 -43 14 0 21 -5 21 -17 0
-11 -5 -16 -12 -14 -7 3 -20 0 -28 -5 -13 -9 -13 -11 0 -20 8 -5 19 -11 24
-13 5 -2 6 -20 2 -42 -6 -28 -10 -35 -16 -25 -5 8 -13 11 -17 6 -4 -4 0 -13 9
-20 19 -14 17 -54 -4 -68 -10 -6 -10 -10 1 -17 9 -6 11 -15 6 -27 -4 -11 -9
-50 -11 -89 -5 -109 -12 -135 -32 -128 -9 4 -19 10 -23 15 -3 4 -5 -8 -6 -27
-1 -36 13 -45 35 -23 9 9 12 5 12 -21 0 -28 -2 -32 -15 -21 -14 12 -35 6 -35
-10 0 -5 8 -6 17 -3 12 5 10 0 -6 -16 -15 -15 -21 -33 -21 -59 1 -20 -2 -48
-6 -61 -5 -17 -4 -22 4 -17 8 4 10 2 6 -7 -4 -11 1 -13 20 -10 20 4 26 0 32
-20 3 -15 4 -32 1 -39 -3 -7 -6 -1 -6 15 -1 31 -20 37 -22 7 -1 -11 -2 -26 -3
-32 -1 -7 4 -12 10 -11 7 1 10 -6 7 -17 -10 -37 -33 -15 -33 31 0 10 -4 19
-10 19 -5 0 -7 7 -4 15 4 8 1 15 -6 15 -6 0 -8 5 -5 10 4 6 1 18 -7 27 -10 13
-10 17 -1 20 7 3 13 8 13 13 0 11 -62 2 -75 -12 -7 -8 -5 -9 8 -5 21 8 23 -9
2 -17 -23 -9 -30 -3 -28 24 1 21 1 22 -3 3 -4 -14 -10 -20 -20 -16 -17 6 -19
-8 -3 -24 8 -8 3 -16 -20 -27 -17 -9 -31 -18 -31 -20 0 -25 124 -301 140 -311
3 -2 12 0 19 5 11 6 3 29 -34 106 -26 55 -54 117 -62 139 -12 36 -12 41 4 52
9 7 20 13 23 13 17 0 50 -44 66 -87 22 -59 83 -173 93 -173 4 0 12 5 18 11 8
8 5 23 -12 56 -24 44 -24 44 -4 64 10 10 25 19 32 19 6 0 3 -7 -8 -16 -16 -12
-17 -16 -6 -23 7 -5 10 -14 7 -20 -4 -7 1 -11 13 -11 11 0 23 -4 26 -10 10
-16 30 -11 58 14 14 13 28 22 30 19 3 -2 15 10 27 27 12 17 33 35 46 40 24 9
33 30 14 30 -5 0 -10 -4 -10 -10 0 -5 -7 -10 -16 -10 -11 0 -14 6 -8 23 3 12
3 19 -1 15 -5 -4 -14 -3 -22 3 -9 9 -13 8 -13 0 0 -21 -27 -11 -38 14 -16 34
-15 35 8 35 26 0 26 16 0 23 -13 3 -18 10 -14 21 4 10 1 16 -10 16 -10 0 -13
6 -10 15 4 8 2 15 -4 15 -6 0 -13 -6 -15 -12 -5 -13 -11 35 -7 61 1 8 -4 18
-12 22 -10 7 -10 9 0 9 6 0 12 5 12 10 0 6 -7 10 -15 10 -8 0 -15 7 -15 15 0
9 6 12 15 9 8 -4 15 -1 15 5 0 6 -3 11 -7 11 -5 0 -14 4 -22 9 -11 7 -11 15 0
45 7 20 17 36 21 36 4 0 8 9 8 20 0 11 -5 20 -11 20 -6 0 -9 -7 -5 -15 3 -9 0
-15 -9 -15 -16 0 -9 29 9 43 8 5 7 10 -3 16 -11 7 -10 11 5 20 16 9 17 12 4
20 -12 8 -12 16 -4 43 6 18 12 89 13 158 2 69 7 130 13 137 5 7 6 18 2 24 -4
7 -3 9 2 6 6 -3 16 -2 22 2 14 9 5 41 -11 41 -6 0 -3 6 7 13 15 11 16 17 7 35
-14 26 -14 42 -1 42 6 0 10 -7 10 -16 0 -8 5 -12 11 -9 6 4 8 14 5 22 -4 9 -1
22 6 30 9 11 9 16 -2 23 -11 7 -11 11 -1 24 8 9 21 16 31 16 21 0 34 41 24 72
-5 18 -3 20 17 14 45 -14 54 -11 71 24 16 31 23 28 19 -7 -1 -7 6 -13 17 -13
27 0 63 -37 55 -57 -5 -12 -2 -15 9 -10 20 7 68 -42 60 -62 -3 -10 0 -12 12
-8 19 8 56 -28 56 -55 0 -11 6 -18 13 -17 6 1 18 1 24 0 15 -1 45 -56 36 -65
-4 -3 5 -6 19 -6 29 0 58 -28 58 -56 0 -13 7 -20 23 -21 27 -2 58 -38 50 -58
-3 -10 1 -15 14 -15 28 0 64 -37 56 -57 -5 -12 -2 -15 9 -11 9 4 20 2 26 -4
11 -11 32 -3 32 13 0 5 -6 9 -13 7 -13 -3 -117 96 -117 112 0 6 -11 15 -25 20
-17 7 -23 15 -19 27 5 15 4 15 -4 3 -9 -12 -13 -9 -21 13 -6 15 -22 32 -36 37
-14 5 -34 23 -43 40 -9 16 -25 33 -35 36 -9 3 -15 10 -11 15 3 5 2 8 -3 7 -11
-3 -72 60 -64 67 3 4 2 5 -4 3 -14 -4 -65 50 -66 70 0 9 -3 12 -5 6 -5 -12
-88 63 -96 86 -5 16 -48 4 -48 -14 0 -8 -7 -19 -16 -26 -13 -12 -14 -10 -2 16
7 16 17 32 22 35 5 4 6 11 2 17 -27 44 326 347 428 368 11 2 22 8 26 14 8 13
141 64 234 91 91 25 351 36 482 20 103 -13 196 -41 203 -62 3 -12 1 -11 -15 1
-17 14 -18 14 -6 -2 12 -14 16 -15 43 -1 17 8 33 21 36 29 3 8 13 14 23 14 26
0 51 11 45 20 -3 4 21 6 53 5 90 -4 126 30 60 56 l-33 13 45 6 45 7 -40 3
c-22 2 -52 3 -66 2 -19 -1 -26 3 -25 15 2 24 -21 27 -27 3 -4 -16 -13 -20 -49
-20 -23 0 -50 4 -57 9 -8 5 -22 6 -30 1 -18 -9 -45 12 -33 26 4 4 -6 -2 -22
-14 -35 -26 -46 -28 -46 -5 0 15 -1 15 -13 -1 -12 -16 -15 -17 -20 -4 -3 9
-17 16 -31 16 -27 0 -35 -13 -13 -22 6 -3 -13 -2 -43 2 -97 12 -321 6 -430
-12 -251 -41 -531 -193 -720 -392 -41 -43 -78 -77 -82 -76 -5 1 -8 -6 -9 -15
0 -11 -6 -6 -15 14 -7 17 -23 34 -34 38 -11 4 -18 11 -14 16 3 5 2 8 -3 7 -11
-3 -72 59 -65 67 3 3 1 5 -5 5 -13 0 -163 146 -163 158 0 5 -11 14 -25 20 -17
8 -23 17 -19 29 5 15 4 15 -4 3 -9 -12 -13 -10 -21 11 -5 15 -19 29 -30 32
-15 4 -19 10 -15 24 4 13 3 15 -4 4 -7 -10 -13 -8 -26 10 l-17 24 3 -30 c2
-24 -1 -30 -17 -31 -14 -1 -21 5 -21 17 0 11 3 19 7 19 4 0 9 9 12 21 4 13 10
18 18 13 8 -5 10 -3 4 6 -9 14 171 195 267 269 145 112 331 219 503 289 127
52 316 103 332 90 7 -6 14 -4 20 5 4 8 20 16 34 19 22 4 25 2 21 -14 -4 -15
-7 -17 -13 -6 -6 9 -9 8 -9 -7 0 -12 6 -27 13 -34 10 -10 8 -11 -8 -6 -17 5
-16 4 2 -6 12 -6 24 -19 26 -28 4 -14 5 -13 6 2 1 15 14 17 121 17 108 0 120
-2 120 -17 0 -15 2 -16 10 -3 6 9 10 10 10 3 0 -6 -4 -14 -9 -18 -6 -3 -6 -17
1 -36 7 -22 7 -38 -2 -59 -11 -27 -17 -30 -56 -30 -32 0 -42 3 -38 13 5 13
-22 44 -30 36 -2 -2 -2 -16 1 -31 5 -25 9 -28 49 -28 23 0 46 -5 49 -10 4 -6
12 -10 18 -9 32 4 47 -4 70 -34 30 -40 37 -68 18 -75 -9 -3 -11 2 -7 19 3 14
0 11 -9 -8 -18 -38 -30 -44 -21 -9 7 28 -13 49 -38 40 -24 -9 -19 -26 5 -19
19 6 21 4 16 -15 -7 -28 29 -62 57 -53 16 4 18 1 12 -21 -3 -14 -2 -26 3 -26
5 0 12 11 15 25 l6 25 618 0 c438 0 613 -3 602 -11 -11 -7 -12 -12 -3 -15 7
-3 9 -12 6 -20 -7 -19 7 -18 21 2 10 13 14 13 36 -6 l24 -20 -643 0 c-354 1
-646 -2 -649 -5 -3 -3 4 -5 16 -5 16 0 22 -6 23 -22 l0 -23 9 23 9 22 624 0
c629 0 647 -1 647 -34 0 -6 -5 -4 -10 4 -5 8 -10 11 -10 5 0 -19 18 -38 29
-31 6 4 11 2 11 -4 0 -7 7 -10 15 -7 8 4 17 2 20 -3 4 -6 -98 -11 -272 -12
l-278 -3 263 -2 c173 -2 262 -7 262 -14 0 -5 -4 -7 -10 -4 -5 3 -10 1 -10 -4
0 -14 17 -14 26 0 4 8 9 7 15 -2 7 -11 9 -9 9 5 0 18 1 18 19 2 16 -15 18 -21
8 -37 -11 -18 -27 -19 -224 -19 -159 0 -213 3 -217 13 -5 10 -7 10 -12 0 -8
-19 -54 -16 -54 2 0 8 -4 15 -10 15 -16 0 -11 -27 6 -34 9 -3 130 -6 270 -6
219 0 254 -2 254 -15 0 -8 5 -15 11 -15 6 0 9 6 6 14 -3 8 0 17 7 19 8 3 13
-1 12 -11 0 -9 5 -17 12 -17 13 0 15 -10 6 -37 -6 -19 -59 -26 -66 -9 -1 4
-14 12 -27 16 -20 6 -23 4 -18 -9 6 -14 3 -16 -15 -10 -20 6 -21 5 -6 -10 10
-9 24 -13 33 -10 10 4 21 1 26 -7 6 -10 9 -10 9 -1 0 8 16 12 46 12 36 0 45 3
41 15 -4 8 -1 17 6 21 7 4 9 4 5 -1 -8 -8 15 -35 29 -35 5 0 17 -16 26 -35
l16 -34 -85 -3 -86 -3 25 -28 24 -29 7 27 c6 24 10 26 49 23 29 -2 42 -8 43
-18 4 -59 3 -57 42 -56 27 1 42 -5 59 -23 11 -13 19 -31 15 -39 -3 -10 -1 -13
6 -8 7 4 12 2 12 -4 0 -8 -27 -11 -87 -9 -49 2 -93 0 -100 -4 -16 -10 -4 -49
14 -43 8 3 21 6 29 6 8 0 14 7 14 15 0 12 15 15 75 15 67 0 75 -2 75 -19 0
-11 6 -22 13 -24 6 -3 2 -6 -10 -6 -13 -1 -23 -5 -23 -10 0 -14 45 -61 58 -61
8 0 22 -22 22 -36 0 -8 -205 -4 -218 4 -7 5 -10 16 -6 25 3 10 1 17 -5 17 -6
0 -11 5 -11 10 0 6 7 10 15 10 8 0 15 9 15 20 0 26 -20 26 -27 0 -3 -11 -10
-17 -16 -13 -6 3 -7 1 -3 -6 13 -20 25 -71 17 -71 -4 0 -15 30 -25 67 -19 74
-41 120 -95 205 -32 51 -45 61 -116 95 -58 27 -97 38 -141 41 -59 4 -63 3
-103 -33 l-41 -37 -56 52 c-110 99 -120 105 -195 105 -79 0 -101 -13 -164 -93
-38 -48 -42 -51 -90 -51 -85 -2 -117 -16 -183 -84 -34 -34 -74 -79 -88 -99
-17 -24 -38 -39 -58 -44 -61 -13 -126 -54 -159 -100 -29 -42 -47 -71 -132
-222 -17 -29 -64 -102 -105 -161 -79 -115 -127 -203 -211 -391 -140 -316 -218
-455 -299 -539 -52 -53 -78 -66 -201 -94 -109 -26 -149 -46 -314 -159 -112
-77 -244 -145 -584 -298 -98 -45 -115 -59 -201 -173 -77 -103 -150 -232 -150
-265 0 -11 -8 -26 -17 -33 -9 -8 -14 -9 -10 -3 4 7 1 14 -6 15 -6 2 -203 2
-437 -1 l-425 -5 428 -3 c372 -2 427 -4 427 -17 0 -8 5 -15 10 -15 6 0 10 -10
9 -22 0 -22 -1 -22 -10 -3 -7 16 -8 12 -5 -15 3 -19 2 -29 -1 -22 -8 20 -25
13 -18 -8 4 -11 2 -20 -4 -20 -6 0 -11 -4 -11 -9 0 -5 11 -8 25 -7 14 0 25 5
25 9 0 4 10 -4 23 -19 21 -24 37 -30 86 -33 8 -1 11 -7 7 -18 -7 -18 9 -33 37
-33 11 0 17 8 17 23 0 16 3 18 9 8 7 -10 10 -10 13 -1 2 8 52 17 143 26 77 8
173 21 214 29 l73 15 68 -58 c134 -114 194 -156 345 -245 45 -27 268 -133 306
-146 167 -57 276 -86 404 -109 138 -24 169 -26 385 -24 129 1 264 3 300 5 52
2 65 -1 66 -13 3 -33 5 -34 20 -6 13 24 14 30 2 37 -10 7 -9 9 5 9 11 0 17 -8
17 -23 0 -20 5 -24 35 -25 19 -1 35 3 35 8 0 6 -4 10 -10 10 -5 0 -10 7 -10
15 0 18 30 20 30 3 1 -7 10 -2 21 12 19 23 28 25 95 25 61 -1 74 2 69 13 -5
12 -3 13 10 2 8 -7 26 -14 40 -15 30 -4 42 23 18 40 -16 12 -14 14 20 20 20 4
37 11 37 15 0 14 41 19 46 5 3 -7 16 -13 29 -13 18 0 27 9 39 39 13 31 21 39
41 39 14 0 25 6 25 13 0 9 3 9 9 -1 11 -19 46 -11 46 10 0 10 6 23 13 30 9 9
12 7 12 -11 0 -25 30 -27 38 -2 3 9 0 12 -11 8 -11 -4 -13 0 -10 14 3 10 9 16
15 13 5 -3 15 0 23 6 8 6 19 9 24 6 6 -4 15 3 21 14 6 11 17 20 25 20 7 0 17
9 20 20 5 17 10 18 27 9 18 -10 20 -9 15 5 -4 9 -2 16 2 16 5 0 11 -7 15 -15
3 -8 13 -15 22 -15 10 0 14 5 10 15 -3 10 1 15 13 15 10 0 22 7 25 16 8 22 7
31 -2 16 -8 -12 -52 -26 -52 -16 0 3 7 12 15 20 12 12 15 12 15 2 1 -7 8 -1
16 15 14 25 29 32 62 28 9 -2 12 4 8 16 -3 12 3 24 21 37 l25 19 -7 -24 c-7
-22 -6 -23 7 -5 14 17 15 17 31 -8 9 -14 17 -33 17 -42 0 -10 5 -14 15 -10 18
7 55 -31 55 -57 0 -13 5 -17 15 -14 21 9 58 -26 58 -55 0 -20 4 -25 23 -25 33
0 54 -20 54 -51 0 -14 3 -23 6 -19 9 9 64 -21 65 -36 1 -6 1 -18 0 -24 -1 -7
6 -13 15 -13 26 0 64 -39 57 -58 -5 -11 -2 -14 9 -9 20 7 68 -42 60 -62 -3
-10 0 -12 12 -8 19 8 56 -28 56 -55 0 -11 6 -18 13 -17 6 1 18 1 24 0 15 -1
45 -56 36 -65 -4 -3 5 -6 19 -6 30 0 58 -28 58 -60 0 -13 3 -21 6 -17 9 9 64
-21 65 -36 1 -6 1 -18 0 -24 -1 -7 6 -13 17 -13 27 0 63 -37 55 -57 -5 -12 -2
-15 9 -10 20 7 68 -42 60 -62 -3 -10 0 -12 11 -8 10 4 25 -4 41 -23 26 -31 41
-37 51 -20 4 6 3 9 -2 8 -11 -3 -72 60 -64 67 3 4 2 5 -4 3 -11 -3 -165 146
-165 160 0 5 -12 14 -26 20 -15 7 -22 17 -18 24 4 7 3 8 -4 4 -8 -4 -16 3 -22
19 -5 14 -21 30 -35 35 -14 5 -34 23 -43 40 -9 16 -25 33 -35 36 -9 3 -15 10
-11 15 3 5 2 8 -3 7 -11 -3 -72 59 -65 67 3 3 0 5 -6 5 -17 0 -62 49 -63 68 0
9 -3 12 -5 6 -5 -12 -94 68 -94 84 0 5 -12 14 -26 20 -15 7 -22 17 -18 24 4 7
3 8 -4 4 -8 -4 -16 3 -22 18 -5 14 -16 26 -23 26 -16 0 -57 42 -57 58 0 7 -11
17 -25 24 -13 6 -22 15 -19 20 3 5 2 7 -3 6 -12 -4 -72 60 -64 68 3 4 1 4 -5
1 -7 -4 -20 5 -30 21 -9 15 -24 32 -31 37 -11 8 7 30 80 100 100 97 213 235
292 357 28 42 56 77 64 77 8 1 11 7 7 17 -4 9 -1 23 5 31 7 7 38 66 69 131 57
115 58 117 70 90 13 -27 34 -36 44 -20 2 4 -5 28 -16 52 l-20 45 38 112 c23
65 42 107 46 100 7 -11 12 13 11 50 -1 7 3 10 8 7 5 -3 6 -16 3 -30 -4 -15 -2
-24 6 -24 8 0 10 -9 6 -25 -4 -14 -2 -25 3 -25 13 0 22 42 12 54 -5 6 -7 30
-4 54 3 30 0 42 -9 42 -9 0 -9 3 2 10 13 8 12 10 -2 10 -19 0 -21 18 -8 60 l8
25 1 -24 c1 -13 4 -21 8 -17 4 4 8 55 9 113 1 103 4 114 37 125 4 2 5 18 1 35
-4 18 -9 31 -13 29 -3 -2 -7 9 -8 26 -2 25 0 28 13 18 21 -18 30 -4 10 16 -12
11 -14 20 -7 28 6 7 8 22 4 34 -3 13 -1 22 6 22 6 0 11 5 11 11 0 5 -5 7 -10
4 -6 -3 -10 -1 -10 5 0 6 -4 9 -8 6 -5 -3 -9 15 -10 39 0 34 3 42 14 38 22 -8
17 36 -6 55 -15 13 -21 34 -26 92 -10 136 -11 160 -2 160 4 0 8 16 8 35 0 19
-4 35 -10 35 -5 0 -10 -7 -10 -15 0 -18 -16 -20 -26 -4 -4 7 1 16 10 21 11 6
15 16 11 29 -4 12 -2 19 5 17 7 -2 15 3 17 10 3 6 0 12 -6 12 -6 0 -11 8 -11
17 0 16 -14 10 -16 -8 -1 -5 -2 -13 -3 -19 -2 -16 -21 -12 -21 5 0 20 33 52
48 47 7 -2 12 1 12 7 0 13 -44 25 -64 18 -10 -4 -16 7 -22 41 -5 26 -7 56 -6
67 1 18 0 17 -12 -4 -13 -23 -13 -23 -23 17 -12 45 1 62 25 33 10 -12 15 -13
18 -3 8 17 211 17 216 0 2 -6 10 -8 16 -4 32 19 3 26 -115 27 -71 0 -122 3
-115 6 6 2 12 13 12 24 0 14 -6 18 -22 15 -13 -3 -25 -5 -28 -5 -3 -1 1 -5 8
-10 11 -7 11 -9 -2 -14 -14 -6 -21 4 -17 25 0 4 -6 5 -13 2 -11 -4 -13 3 -9
36 6 40 5 42 -16 35 -23 -7 -26 1 -11 25 6 10 10 11 10 3 0 -7 5 -13 11 -13 6
0 9 7 5 15 -4 13 8 15 76 15 116 0 93 8 -34 12 -122 3 -111 -6 -112 100 -1 57
-1 58 27 58 27 0 28 1 11 17 -13 13 -19 14 -22 5 -4 -14 -82 -17 -82 -2 0 5
-7 7 -15 4 -11 -5 -14 1 -12 25 1 22 6 29 17 26 8 -2 22 0 30 5 17 11 12 12
-51 10 -55 -2 -70 19 -39 50 28 28 25 33 -17 47 -27 8 -42 8 -50 1 -10 -8 -13
-7 -13 4 0 8 -8 23 -18 34 -15 16 -16 22 -6 32 17 15 25 15 21 0 -1 -7 5 -12
13 -10 12 3 13 1 3 -9 -18 -18 -16 -30 2 -23 20 8 19 27 -3 47 -22 20 -49 22
-54 5 -3 -7 -7 -6 -11 5 -3 9 -2 17 3 17 6 0 10 7 10 17 0 15 -2 15 -19 -1
-22 -20 -40 -4 -21 19 17 20 5 33 -26 29 -20 -2 -24 0 -15 9 19 19 12 30 -15
24 -18 -3 -22 -1 -15 6 19 19 12 37 -14 37 -18 0 -23 4 -19 15 4 8 2 15 -4 15
-6 0 -12 -6 -15 -12 -3 -9 -10 -7 -23 6 -19 19 -19 20 0 5 18 -13 19 -12 12
16 -10 38 -10 39 -36 25 -20 -10 -21 -10 -16 8 6 16 3 19 -19 14 -20 -3 -25 0
-25 17 0 14 4 20 11 15 7 -4 10 -1 7 6 -7 22 -26 23 -30 1 -2 -15 -7 -18 -18
-11 -12 7 -12 12 4 29 19 21 19 21 0 22 -10 1 -23 1 -28 0 -4 -1 -14 3 -22 10
-7 6 -18 8 -23 5 -17 -11 -22 12 -6 27 19 20 21 44 2 29 -8 -7 -18 -7 -27 -2
-10 7 -11 10 -2 10 15 0 16 26 0 36 -8 5 -9 2 -4 -11 5 -15 4 -16 -9 -5 -8 7
-15 22 -15 34 0 19 -3 18 -29 -11 -31 -36 -51 -42 -51 -17 0 8 -4 13 -9 10 -4
-3 -6 5 -3 19 3 20 11 25 46 28 41 3 41 4 -8 5 -47 2 -48 3 -33 20 25 27 9 35
-17 9 -23 -24 -66 -35 -66 -17 0 7 -8 9 -20 5 -33 -11 -63 13 -58 46 4 26 2
29 -22 29 -14 0 -31 -5 -38 -12 -9 -9 -12 -9 -12 0 0 7 -14 12 -33 12 -32 0
-33 1 -29 37 4 30 2 35 -12 30 -9 -4 -16 -2 -16 4 0 15 -30 -17 -31 -33 0 -7
-4 -3 -9 10 -5 12 -17 23 -27 24 -32 2 -38 4 -60 16 -12 7 -29 9 -37 6 -9 -4
-16 -1 -16 6 0 9 -10 11 -30 7 -41 -9 -62 1 -54 25 5 17 2 19 -23 16 -15 -1
-31 -7 -35 -13 -5 -7 -11 -7 -15 0 -8 10 -11 11 -63 14 -17 0 -30 7 -30 14 0
8 -21 12 -75 12 -57 -1 -75 2 -75 13 0 7 5 10 10 7 5 -3 10 -2 10 4 0 5 -4 13
-10 16 -5 3 -10 1 -10 -5 0 -7 -7 -9 -15 -6 -9 3 -18 -1 -21 -9 -8 -19 -20
-19 -28 1 -3 8 -2 12 4 9 6 -3 10 -1 10 5 0 6 -11 8 -27 4 -16 -4 -32 -7 -38
-8 -5 0 -13 -5 -17 -11 -5 -7 -14 -6 -28 3 -11 6 -31 12 -44 12 -13 0 -26 -6
-29 -12 -4 -10 -7 -10 -18 0 -7 6 -18 12 -23 12 -6 0 -4 -5 4 -10 12 -8 11
-10 -7 -10 -13 0 -23 5 -23 10 0 6 -5 10 -11 10 -5 0 -7 -5 -3 -11 4 -8 0 -8
-15 0 -16 9 -21 9 -21 -1 0 -9 -3 -9 -10 2 -6 10 -10 11 -10 3 0 -20 -99 -17
-121 3 -10 9 -23 13 -28 9 -15 -9 -14 -28 2 -19 6 4 9 3 4 -1 -11 -13 -47 -16
-47 -4 0 5 -6 9 -12 7 -7 -1 -23 3 -35 10 -18 10 -25 9 -39 -5 -13 -13 -19
-14 -22 -5 -2 6 -8 12 -14 12 -6 0 -8 -7 -5 -15 4 -8 2 -17 -2 -20 -5 -2 -12
6 -15 20 -7 29 -26 34 -27 8 0 -11 -3 -13 -6 -5 -9 23 -22 12 -17 -16 5 -25 2
-28 -38 -39 -26 -7 -44 -8 -46 -2 -5 12 -42 12 -42 0 0 -5 5 -11 12 -13 11 -4
-111 -48 -133 -48 -22 0 -258 -104 -349 -155 -191 -105 -358 -231 -506 -383
-66 -66 -111 -106 -110 -95 0 12 -5 17 -16 15 -9 -1 -20 3 -24 9 -4 8 -3 9 4
5 30 -18 7 4 -33 33 -25 18 -45 38 -45 44 0 7 -14 21 -30 30 -17 10 -37 31
-45 46 -8 16 -23 31 -35 34 -14 4 -18 10 -14 24 5 14 4 15 -4 3 -9 -12 -13 -9
-21 13 -6 15 -22 32 -36 37 -14 5 -34 23 -43 40 -9 16 -25 33 -35 36 -9 3 -15
10 -11 15 3 5 2 8 -3 7 -13 -4 -72 61 -59 66 6 2 3 5 -6 5 -22 1 -68 47 -69
69 0 9 -3 12 -5 6 -5 -13 -94 69 -94 86 0 6 -12 15 -26 20 -15 6 -22 14 -18
22 4 7 3 8 -4 4 -7 -4 -16 3 -21 18 -6 13 -22 30 -38 38 -15 7 -34 25 -41 40
-7 15 -21 30 -32 33 -11 4 -18 11 -14 16 3 5 2 8 -3 7 -11 -3 -72 59 -65 67 3
3 1 5 -5 5 -13 0 -163 146 -163 158 0 5 -11 14 -25 20 -17 8 -23 17 -19 29 5
15 4 15 -4 3 -9 -12 -13 -9 -21 13 -6 15 -22 32 -36 37 -13 5 -30 18 -37 30
-18 28 -30 25 -18 -4z m3100 -480 c14 -2 28 -4 33 -5 4 0 7 -11 7 -23 0 -19 2
-20 10 -8 7 11 10 11 10 2 0 -7 5 -10 10 -7 6 3 10 -1 10 -10 0 -12 -5 -15
-22 -9 -20 6 -21 5 -10 -9 7 -8 9 -18 4 -21 -12 -7 -81 5 -88 16 -3 5 -11 5
-17 0 -7 -5 -76 -6 -157 -2 -80 4 -153 4 -162 -1 -11 -6 -18 -5 -21 4 -4 9 -8
8 -16 -3 -9 -12 -12 -13 -20 -1 -5 8 -10 9 -12 3 -2 -6 -17 -13 -34 -16 -16
-4 -24 -3 -17 0 21 10 13 24 -13 24 -18 0 -25 -5 -25 -20 0 -11 -4 -20 -10
-20 -5 0 -10 2 -10 4 0 2 -3 12 -7 22 -4 12 -3 15 5 10 7 -4 12 -1 12 9 0 11
-5 15 -15 11 -13 -5 -14 -2 -4 17 8 14 14 18 17 9 3 -11 8 -10 21 2 10 9 47
17 96 21 44 4 82 8 83 10 4 4 306 -4 342 -9z m-718 -89 c-1 -8 2 -18 8 -22 24
-15 7 -32 -43 -42 -121 -25 -437 -160 -528 -225 -22 -16 -41 -28 -45 -28 -10
0 -138 -93 -214 -156 -41 -34 -111 -99 -155 -143 -44 -45 -85 -81 -92 -81 -6
0 -18 -9 -26 -21 -11 -15 -16 -17 -21 -7 -5 10 -7 10 -12 1 -3 -7 -20 -13 -37
-13 -29 0 -30 1 -13 18 9 9 23 26 31 37 12 16 14 16 9 3 -7 -19 10 -25 21 -8
4 6 11 8 16 5 5 -4 9 -1 9 5 0 6 -7 13 -15 16 -8 4 -15 10 -15 15 0 16 160
178 237 240 235 191 427 298 718 400 90 32 172 35 167 6z m411 -54 c-9 -3 -9
-11 3 -29 9 -13 20 -21 25 -18 5 3 9 -4 9 -15 0 -11 -4 -23 -10 -26 -6 -3 -7
1 -4 10 5 11 2 14 -10 9 -9 -3 -16 -10 -16 -15 0 -5 -51 -9 -114 -9 -95 0
-115 3 -120 16 -11 28 -7 44 9 38 8 -4 15 -2 15 4 0 6 -6 13 -12 15 -8 3 -6 6
5 6 9 1 17 -6 17 -14 0 -8 5 -15 11 -15 6 0 9 7 5 15 -8 21 11 19 23 -3 7 -13
6 -23 -1 -30 -7 -7 -8 -15 -4 -19 11 -11 26 19 24 47 -3 24 -1 25 54 26 32 0
61 3 64 7 4 4 14 7 23 6 10 0 11 -2 4 -6z m713 -120 c15 -15 18 -15 28 -2 9
13 16 14 40 4 19 -8 24 -14 15 -17 -8 -3 -11 -9 -7 -13 4 -4 13 -3 20 3 9 7
25 6 53 -4 22 -7 41 -14 42 -14 1 0 0 -7 -3 -15 -4 -9 0 -15 9 -15 9 0 22 -6
29 -12 19 -19 40 -21 49 -6 11 17 50 -18 42 -39 -5 -12 -7 -12 -14 -2 -4 7 -5
17 -2 22 3 5 0 7 -8 5 -8 -3 -13 -13 -13 -22 2 -14 -20 -16 -221 -16 -199 0
-224 2 -229 17 -4 9 -3 20 2 25 5 5 7 30 4 55 -4 36 -2 44 8 38 10 -6 12 -4 7
8 -6 15 2 17 63 17 51 0 73 -4 86 -17z m-166 -165 c0 18 540 17 541 -1 0 -8 2
-8 6 1 4 9 9 8 21 -6 10 -10 23 -21 31 -23 11 -4 10 -9 -5 -24 -17 -17 -17
-18 -1 -12 9 3 17 2 17 -3 0 -6 5 -10 11 -10 7 0 10 12 7 29 -2 17 -1 28 4 25
4 -3 8 -14 8 -26 0 -16 3 -18 14 -9 9 8 16 8 20 2 4 -5 2 -12 -4 -16 -11 -7
-14 -56 -2 -53 4 2 9 -1 12 -7 3 -7 -122 -11 -362 -13 -259 -1 -368 1 -368 9
0 6 -8 8 -19 4 -11 -3 -22 -1 -25 4 -4 5 3 12 13 16 13 4 18 12 14 21 -3 8 1
22 9 32 7 9 20 29 28 45 10 20 16 24 22 15 6 -11 8 -11 8 0z m433 -470 c12 -6
56 -42 98 -80 77 -69 113 -83 124 -49 3 10 25 29 49 41 39 21 47 22 91 11 76
-19 153 -60 179 -94 30 -41 93 -164 101 -198 6 -24 3 -27 -37 -35 l-43 -9 4
-43 c1 -24 15 -107 31 -185 16 -78 28 -142 27 -143 -1 -1 -18 5 -37 14 -31 14
-33 16 -12 19 32 6 28 39 -8 58 -16 9 -30 20 -30 26 0 5 -8 13 -17 16 -38 14
-61 53 -81 138 -19 81 -20 88 -4 115 13 22 14 32 5 41 -17 17 -62 2 -72 -25
-5 -12 -23 -36 -40 -52 -24 -22 -30 -35 -26 -52 4 -15 2 -21 -5 -17 -6 3 -10
-3 -10 -14 0 -14 -6 -21 -19 -21 -21 0 -65 -64 -63 -94 0 -10 -12 -42 -29 -70
-16 -29 -29 -59 -29 -67 0 -13 -18 -54 -115 -264 -101 -218 -121 -290 -91
-330 12 -17 18 -18 53 -7 39 12 71 42 328 312 49 52 115 114 145 136 56 42
159 99 166 91 2 -2 6 -17 10 -33 5 -26 0 -34 -35 -62 -34 -27 -41 -39 -41 -68
0 -53 23 -87 79 -118 48 -26 59 -46 25 -46 -8 0 -18 -10 -22 -21 -8 -19 -10
-20 -24 -6 -15 16 -28 13 -28 -5 0 -5 5 -6 10 -3 6 3 10 1 10 -4 0 -15 -30
-14 -31 2 0 10 -2 10 -6 0 -2 -7 -9 -13 -14 -13 -6 0 -7 5 -4 10 3 6 0 10 -7
10 -7 0 -35 20 -62 45 -52 47 -82 56 -93 28 -5 -12 9 -31 46 -65 44 -40 51
-51 41 -63 -7 -8 -16 -12 -21 -9 -5 3 -9 -7 -9 -21 0 -15 4 -24 10 -20 6 3 10
-2 10 -12 -1 -15 -4 -14 -21 7 -12 14 -32 46 -45 72 -27 53 -53 62 -77 27 -15
-21 -10 -71 14 -132 8 -18 8 -31 2 -40 -6 -6 -13 -29 -16 -50 -4 -24 -21 -56
-49 -90 -24 -28 -70 -91 -101 -139 -47 -72 -86 -113 -237 -247 -99 -89 -192
-167 -205 -173 -14 -6 -25 -15 -25 -21 0 -5 -12 -6 -26 -3 -21 6 -25 4 -21 -8
3 -8 0 -20 -8 -26 -10 -8 -14 -8 -18 2 -4 9 -6 7 -6 -4 -1 -22 -73 -78 -79
-60 -2 6 -11 12 -19 12 -11 0 -14 -7 -9 -25 5 -20 3 -25 -13 -25 -11 0 -22 6
-24 13 -4 9 -8 9 -15 -2 -5 -7 -15 -10 -21 -7 -6 4 -11 2 -11 -3 0 -11 15 -15
34 -12 5 1 4 -5 -3 -13 -7 -9 -17 -13 -22 -10 -5 3 -12 -2 -15 -10 -3 -9 -14
-16 -24 -16 -11 0 -22 -5 -26 -12 -5 -7 -11 -5 -21 7 -10 14 -16 16 -25 7 -8
-8 -8 -15 2 -27 14 -17 0 -21 -17 -4 -19 19 -59 -1 -83 -42 -21 -38 -25 -40
-64 -39 -56 2 -65 0 -36 -11 22 -8 21 -8 -7 -4 -19 3 -33 0 -33 -6 0 -6 -4 -8
-9 -5 -5 3 -14 -1 -21 -9 -11 -13 -10 -14 3 -10 19 8 33 -13 18 -28 -9 -9 -14
-9 -20 1 -12 19 -135 -14 -127 -34 4 -10 -3 -14 -24 -14 -21 0 -43 -13 -77
-45 -42 -40 -47 -50 -20 -46 4 1 2 -8 -5 -19 -15 -23 -43 -28 -34 -5 3 9 0 15
-9 15 -8 0 -15 -5 -15 -11 0 -5 -4 -7 -10 -4 -5 3 -10 1 -10 -4 0 -6 -3 -10
-7 -9 -5 2 -9 -1 -10 -7 -1 -5 5 -9 13 -9 8 1 14 -2 14 -7 0 -13 -24 -11 -38
3 -17 17 -27 1 -11 -19 9 -11 10 -14 2 -9 -8 4 -13 2 -13 -7 0 -15 -23 -28
-230 -132 -157 -80 -237 -115 -261 -115 -10 0 -21 -5 -25 -11 -3 -6 -22 -18
-41 -26 -32 -13 -38 -12 -69 7 -20 11 -44 20 -54 20 -32 0 -32 -18 0 -35 16
-8 30 -18 30 -20 0 -2 -25 -12 -56 -21 -55 -16 -55 -16 -94 10 -30 20 -40 34
-45 63 -11 61 -15 71 -43 106 -21 25 -22 28 -4 13 12 -11 25 -17 28 -13 22 21
-69 117 -111 117 -14 0 -25 -2 -25 -5 0 -2 19 -22 42 -44 43 -40 43 -40 12
-32 -16 5 -48 5 -70 1 -34 -6 -43 -3 -71 23 -26 24 -36 28 -62 22 -36 -8 -40
-28 -10 -49 21 -14 20 -15 -17 -25 -55 -15 -215 -38 -310 -46 -63 -5 -84 -4
-95 8 -23 23 -59 38 -71 31 -8 -5 -9 -2 -5 9 4 12 1 17 -10 17 -42 0 23 168
115 299 106 152 130 174 217 210 201 84 505 242 641 334 88 58 156 97 180 102
80 14 222 66 262 94 96 70 184 228 410 736 36 80 84 160 138 231 35 45 98 148
174 284 30 52 63 106 74 118 18 21 85 62 100 62 13 0 -118 -190 -177 -257 -50
-57 -57 -86 -21 -91 21 -3 88 66 144 148 100 147 111 166 107 188 -3 13 1 22
8 22 7 0 24 19 38 43 14 23 55 71 91 107 l66 65 80 3 80 4 37 50 c20 28 50 59
67 69 35 21 106 25 139 7z m-2265 -125 c5 -10 7 -24 5 -30 -3 -7 3 -13 13 -13
26 0 64 -39 57 -58 -5 -11 -2 -14 9 -9 9 3 23 -2 34 -14 17 -19 13 -19 -239
-19 -250 0 -255 0 -250 20 3 11 8 18 12 15 4 -2 16 14 25 36 19 43 33 48 17 6
-11 -27 -4 -67 11 -67 6 0 7 26 4 64 -5 63 -5 65 22 75 15 5 82 10 149 10 107
1 123 -1 131 -16z m145 -170 c-5 -12 -2 -15 10 -10 20 8 57 -28 57 -56 0 -12
5 -17 14 -14 20 8 56 -21 56 -44 0 -18 -10 -19 -371 -19 -334 0 -371 2 -365
16 3 9 6 19 6 23 0 4 12 7 28 8 46 1 52 3 52 13 0 5 -17 8 -37 6 -21 -2 -32
-2 -25 1 6 2 10 9 6 14 -3 5 -1 9 5 9 5 0 12 -4 16 -10 13 -22 35 3 35 41 l0
39 260 0 c238 0 259 -1 253 -17z m3100 -215 c2 -27 0 -48 -5 -48 -4 0 -8 5 -8
10 0 6 -4 10 -8 10 -4 0 -8 -15 -8 -33 0 -30 3 -34 28 -34 28 0 38 12 16 19
-9 3 -9 6 0 12 7 4 14 0 18 -11 3 -10 10 -26 15 -37 8 -14 7 -16 -2 -10 -9 5
-11 2 -6 -9 3 -9 1 -18 -6 -21 -9 -3 -8 -8 3 -15 10 -7 11 -11 3 -11 -7 0 -13
-5 -13 -11 0 -6 6 -9 13 -6 8 3 20 1 28 -4 8 -5 9 -9 3 -9 -6 0 -11 -11 -11
-25 0 -13 3 -22 8 -19 11 6 11 1 3 -20 -3 -9 -15 -16 -26 -16 -11 0 -18 -5
-15 -12 2 -7 19 -13 38 -14 22 0 34 -5 35 -15 0 -7 4 -22 9 -33 5 -12 4 -26
-4 -38 -9 -15 -9 -22 4 -35 22 -22 4 -39 -25 -23 -12 6 -30 10 -40 7 -14 -4
-16 1 -14 26 4 29 3 30 -11 11 -14 -18 -14 -18 -15 9 0 25 -3 27 -27 21 -25
-7 -26 -6 -20 27 3 19 3 28 0 21 -3 -9 -17 -2 -42 21 -23 21 -57 39 -87 46
-48 12 -49 13 -48 49 0 20 -3 45 -8 55 -5 10 -4 25 3 38 6 13 7 24 2 28 -15
10 -23 40 -13 46 15 10 12 28 -4 22 -9 -4 -16 3 -19 18 -2 14 0 22 4 19 14 -9
10 6 -6 22 -8 9 -15 19 -15 24 0 13 242 17 257 5 7 -5 14 -31 16 -57z m147 47
c0 -9 -6 -12 -15 -9 -8 4 -15 2 -15 -4 0 -6 12 -14 28 -20 l27 -9 -30 -16 -30
-17 30 2 c32 3 31 5 70 -142 l7 -25 -20 24 c-19 23 -19 23 -25 2 -6 -24 -37
-29 -37 -6 0 8 -4 15 -10 15 -6 0 -6 9 1 26 5 15 7 29 4 32 -3 3 -5 0 -5 -7 0
-7 -4 -9 -10 -6 -5 3 -10 16 -10 29 0 12 -4 26 -8 32 -5 5 -13 21 -19 35 -10
23 -9 26 5 25 11 -1 18 7 19 24 1 17 0 19 -4 6 -4 -15 -7 -16 -14 -5 -7 12
-10 12 -18 1 -6 -11 -10 -9 -14 7 -5 19 -1 21 44 21 36 0 49 -4 49 -15z m35
-274 c-3 -11 -1 -22 5 -26 6 -4 8 -15 5 -25 -5 -16 -1 -18 30 -15 l36 4 -5
-40 c-2 -21 0 -39 5 -39 5 0 9 -20 9 -44 0 -41 -1 -43 -25 -38 -15 2 -25 0
-25 -7 0 -6 8 -11 18 -11 24 0 42 -19 35 -36 -3 -8 0 -14 6 -14 6 0 11 -4 11
-8 0 -5 -10 -8 -22 -7 -17 2 -22 8 -21 23 1 11 -4 23 -12 26 -10 3 -12 0 -9
-12 4 -12 2 -11 -7 3 -7 11 -16 22 -20 25 -5 3 -10 33 -11 65 -2 33 -6 63 -10
66 -5 3 -9 24 -10 47 -1 23 -5 42 -10 42 -4 0 0 9 10 19 22 25 25 25 17 2z
m-731 -45 c-5 -24 -3 -28 9 -23 9 3 17 1 19 -5 3 -7 9 -5 18 4 24 23 47 28 67
13 10 -7 16 -15 13 -17 -3 -2 -37 -25 -76 -50 -39 -26 -111 -88 -160 -139
-254 -264 -291 -302 -316 -315 -35 -18 -38 -18 -38 7 0 21 203 486 219 502 4
4 15 1 23 -7 9 -8 18 -12 22 -9 3 4 6 -1 6 -10 0 -9 5 -17 11 -17 6 0 9 7 5
15 -3 8 -1 15 5 15 5 0 12 -13 16 -30 6 -31 18 -39 26 -17 3 6 6 2 6 -10 2
-58 23 -66 62 -25 42 43 51 66 34 88 -19 25 -19 40 0 24 17 -14 19 -7 6 19 -7
13 -5 17 10 17 17 0 19 -5 13 -30z m354 -189 c44 -30 51 -55 21 -78 -56 -43
-63 -43 -121 -13 -65 36 -72 60 -27 98 37 31 72 29 127 -7z m204 -54 c10 -9
18 -27 18 -40 0 -13 6 -23 14 -23 7 0 19 -7 26 -15 15 -18 34 -20 24 -2 -4 6
2 3 14 -7 12 -11 22 -23 22 -27 0 -4 5 -20 12 -36 16 -40 18 -55 6 -51 -5 2
-8 6 -6 9 4 8 -22 39 -33 39 -5 0 -9 -5 -9 -11 0 -5 4 -8 9 -4 5 3 12 1 16 -5
3 -5 1 -10 -4 -10 -14 0 -14 -37 -1 -45 6 -3 10 -1 10 6 0 8 4 8 15 -1 18 -15
20 -34 3 -24 -7 5 -9 2 -5 -9 4 -10 2 -14 -6 -11 -8 3 -13 -5 -14 -17 -1 -12
-8 -26 -15 -31 -9 -5 -10 -10 -2 -15 12 -9 14 -53 2 -53 -4 0 -8 -5 -8 -11 0
-6 7 -9 14 -6 10 4 13 1 9 -9 -3 -9 -17 -20 -30 -25 -16 -6 -23 -15 -19 -24 3
-8 1 -17 -5 -21 -6 -3 -8 -12 -5 -20 3 -8 1 -14 -4 -14 -6 0 -10 9 -10 19 0
24 -16 36 -23 19 -3 -7 -6 -4 -6 8 -1 11 5 26 11 32 10 10 10 15 -2 22 -13 9
-13 11 -1 19 12 8 12 11 -1 25 -9 8 -14 27 -12 43 2 15 1 22 -2 14 -4 -7 -9
-9 -13 -4 -3 5 -21 19 -39 32 -24 17 -31 28 -27 42 4 10 2 19 -4 19 -5 0 -13
-9 -16 -20 -10 -32 -32 -22 -26 13 0 4 -3 7 -8 7 -5 0 -12 11 -15 25 -4 14
-13 25 -21 25 -8 0 -15 5 -15 11 0 5 5 7 10 4 15 -9 12 7 -6 35 l-16 25 21
-23 c19 -22 41 -23 41 -1 0 6 -5 7 -11 3 -21 -13 3 40 32 71 16 17 29 36 29
43 0 6 6 9 14 6 8 -3 17 -1 21 5 9 16 26 14 47 -6z m-312 -253 c5 0 11 8 13
18 3 11 7 7 12 -15 7 -32 20 -43 27 -23 2 6 8 6 18 0 10 -7 11 -12 4 -17 -16
-12 -54 -96 -54 -121 0 -32 19 -74 46 -103 22 -23 23 -27 9 -33 -12 -4 -19 0
-22 14 -3 11 -13 20 -23 20 -9 0 -29 14 -44 30 -15 17 -32 28 -38 24 -7 -5 -8
-3 -3 6 4 7 10 58 13 113 2 55 9 106 16 113 9 9 12 8 14 -7 2 -10 7 -19 12
-19z m596 -45 c-3 -9 -11 -13 -17 -9 -7 4 -10 1 -7 -7 3 -8 11 -13 18 -11 6 1
10 -3 7 -10 -2 -7 -10 -12 -16 -10 -6 1 -11 -8 -11 -20 0 -19 2 -20 10 -8 8
12 10 11 10 -8 0 -19 -4 -21 -25 -16 -19 5 -25 2 -25 -11 0 -15 2 -16 16 -4
15 12 16 11 10 -8 -4 -12 -2 -24 4 -28 5 -3 10 -11 10 -16 0 -6 -4 -8 -9 -5
-5 3 -6 -15 -3 -40 3 -32 1 -49 -8 -54 -11 -7 -11 -11 -1 -24 11 -13 11 -19 1
-31 -6 -8 -9 -18 -6 -23 3 -5 -3 -20 -14 -32 -11 -13 -20 -19 -20 -15 0 5 -3
5 -7 2 -3 -4 1 -13 11 -20 17 -12 16 -18 -9 -107 -38 -138 -46 -160 -56 -160
-5 0 -8 4 -7 8 2 4 -8 31 -21 59 l-23 51 22 75 c19 65 26 76 43 74 16 -2 22 4
23 26 2 15 -1 27 -7 27 -5 0 -9 -7 -9 -15 0 -8 -4 -15 -9 -15 -4 0 -6 11 -3
25 2 14 8 25 13 25 5 0 8 15 7 33 -1 61 2 77 17 77 8 0 15 5 15 10 0 6 7 10
16 10 9 0 14 6 12 13 -3 6 -10 12 -16 12 -15 0 -16 19 -2 21 6 1 16 2 23 3 7
1 3 9 -10 20 -24 20 -30 41 -13 41 6 0 10 7 10 15 0 8 4 15 8 15 4 0 6 15 4
33 -3 26 1 34 20 43 28 12 32 10 24 -11z m-955 -267 c-13 -56 -69 -188 -86
-200 -5 -4 -7 -8 -2 -8 10 0 -14 -45 -68 -129 -49 -76 -227 -268 -270 -291
-24 -13 -28 -13 -37 4 -11 19 -11 19 -24 1 -14 -19 -19 -11 -15 22 1 6 -3 14
-9 18 -6 4 -10 -6 -10 -24 l0 -31 -86 0 -87 0 27 25 c15 14 31 23 36 20 5 -3
11 -1 15 5 4 7 12 7 26 0 11 -6 19 -7 19 -1 0 5 8 7 19 4 25 -6 36 33 13 47
-19 11 -8 22 108 120 30 25 79 69 109 98 31 29 74 67 97 85 37 28 126 136 135
163 6 16 94 133 97 129 2 -2 -1 -28 -7 -57z m303 -2 c7 3 19 -2 26 -11 18 -21
77 -20 83 3 3 10 5 6 6 -11 0 -15 7 -30 15 -33 8 -3 12 -13 10 -22 -5 -15 -4
-15 6 1 14 22 24 22 46 0 13 -13 19 -14 22 -5 2 6 11 12 20 12 15 0 15 -2 2
-10 -9 -6 -10 -10 -3 -10 6 0 20 13 29 29 17 29 17 29 38 9 12 -10 21 -22 20
-26 -1 -8 22 -32 31 -32 11 0 23 45 13 51 -5 3 10 13 32 22 40 15 41 15 35 -4
-5 -16 -3 -20 11 -17 22 4 26 -31 12 -97 -15 -69 -19 -73 -35 -32 -14 34 -31
46 -45 31 -9 -9 23 -95 37 -100 17 -7 -34 -151 -102 -289 -48 -98 -136 -245
-190 -316 -16 -20 -43 -57 -61 -81 -19 -25 -81 -91 -138 -148 -98 -97 -106
-102 -123 -86 -10 9 -21 13 -24 9 -4 -3 -7 -2 -7 4 0 6 -9 13 -20 16 -14 4
-18 11 -14 24 4 13 3 14 -3 5 -11 -14 -24 -3 -36 31 -4 9 -15 20 -24 23 -10 4
-29 18 -41 33 l-24 26 6 -27 6 -28 -80 0 c-44 0 -80 4 -80 10 0 14 31 28 51
23 11 -3 19 0 19 6 0 6 -5 11 -11 11 -5 0 -7 5 -4 10 10 17 25 11 25 -10 0
-22 15 -27 26 -9 3 6 1 16 -5 22 -14 14 -14 27 0 27 5 0 7 -4 4 -10 -4 -6 5
-10 21 -10 26 0 27 0 9 20 -18 20 -17 21 45 79 73 67 73 66 5 147 -85 101 -97
114 -105 114 -4 0 -37 -27 -74 -59 -68 -63 -104 -87 -114 -77 -3 3 0 6 7 6 7
0 9 5 6 10 -5 8 -11 7 -21 -1 -11 -9 -14 -8 -14 3 0 7 51 65 113 128 61 63
138 154 169 201 69 103 153 275 168 344 17 80 16 79 110 69 70 -9 83 -8 88 5
3 9 7 11 9 4 3 -7 10 -10 17 -7z m486 -409 c11 -10 20 -15 20 -11 0 4 2 5 5 2
15 -15 -128 -297 -221 -437 -83 -124 -243 -310 -335 -390 -55 -47 -76 -49 -99
-9 l-15 28 86 82 c91 87 228 248 276 323 17 28 33 43 42 40 9 -3 11 0 8 10 -4
8 10 43 30 77 42 73 74 138 128 261 34 76 40 84 48 65 4 -12 17 -31 27 -41z
m-1253 -244 c-3 -2 -12 -5 -20 -7 -8 -1 -27 -15 -42 -31 -15 -17 -23 -23 -17
-15 7 11 6 19 -4 28 -12 11 -14 9 -15 -10 -1 -17 -3 -18 -6 -5 -2 9 -9 17 -15
17 -5 0 -8 -7 -4 -15 3 -8 2 -15 -3 -15 -4 0 -14 -12 -21 -27 -11 -23 -14 -25
-17 -10 -6 25 -35 21 -57 -7 -11 -16 -24 -23 -34 -19 -10 4 -14 3 -10 -2 18
-19 -16 -35 -77 -35 -41 0 -65 -4 -68 -12 -3 -7 -3 2 0 20 4 21 1 32 -6 32
-21 0 -1 20 42 40 49 24 48 24 41 5 -9 -22 4 -18 32 8 24 23 33 44 13 31 -7
-4 -10 -1 -7 7 3 8 15 14 27 13 11 0 21 3 21 7 0 4 57 7 126 7 69 0 123 -2
121 -5z m371 -112 l42 -53 -22 -27 c-35 -43 -80 -72 -93 -61 -7 6 -16 5 -23
-2 -8 -8 -9 -5 -5 12 4 16 2 21 -7 18 -18 -6 -70 42 -70 65 0 12 -4 16 -12 11
-21 -13 13 27 67 78 57 53 42 58 123 -41z m-888 -250 c0 -18 50 -6 57 14 6 19
6 19 14 -3 10 -25 31 -30 27 -6 -2 10 3 19 10 21 6 3 12 -3 12 -14 1 -17 1
-17 11 0 12 21 31 23 23 2 -4 -9 0 -15 10 -15 9 0 16 -8 16 -20 0 -20 -7 -20
-295 -20 -162 0 -295 3 -295 8 1 10 41 38 68 46 16 5 24 3 28 -8 7 -18 44 -22
44 -5 0 8 5 7 16 -2 11 -9 18 -9 22 -2 4 6 32 11 62 11 30 0 67 3 83 5 18 3
27 0 27 -9 0 -8 5 -14 10 -14 6 0 10 9 10 20 0 18 3 19 20 10 11 -6 20 -15 20
-19z m180 -67 c0 -11 5 -14 16 -10 11 4 15 2 11 -8 -3 -8 -1 -17 6 -19 9 -3 9
-8 0 -18 -11 -11 -13 -11 -13 0 0 10 -3 11 -14 2 -10 -8 -112 -11 -361 -11
-305 1 -346 3 -341 17 3 8 6 17 6 19 0 3 5 2 12 -2 8 -5 9 -2 5 10 -6 15 -2
16 28 10 36 -6 51 10 18 19 -10 3 127 5 305 6 290 1 322 -1 322 -15z m303 9
c-21 -8 -15 -23 8 -23 15 0 19 5 15 15 -3 8 -1 15 5 15 5 0 12 -7 16 -15 5
-14 8 -14 29 0 31 20 63 19 81 -2 11 -14 16 -15 20 -5 4 10 8 10 19 1 11 -9
14 -8 14 2 0 11 2 11 10 -1 8 -13 11 -13 19 -1 5 7 14 10 20 7 6 -4 11 -2 11
4 0 8 29 11 91 9 97 -3 125 -15 131 -54 3 -19 -3 -20 -248 -23 l-252 -2 -6 26
c-5 17 -12 24 -21 20 -8 -3 -15 -2 -15 2 0 8 39 29 55 30 6 0 4 -2 -2 -5z
m-1071 -94 c13 -7 18 -7 14 -1 -7 12 1580 17 1609 6 8 -4 15 -13 15 -21 0 -8
-5 -11 -11 -7 -7 4 -7 -1 1 -16 6 -12 10 -23 8 -26 -4 -3 -40 -11 -60 -13 -5
-1 -8 -7 -8 -14 0 -8 -12 -24 -27 -38 l-28 -24 24 27 c13 15 21 34 18 42 -7
18 -27 22 -27 6 0 -5 5 -10 11 -10 5 0 7 -5 4 -11 -5 -7 -14 -3 -26 10 -25 27
-29 26 -29 -3 0 -14 7 -26 16 -28 13 -3 13 -5 1 -23 -12 -15 -18 -17 -29 -7
-11 9 -19 9 -33 -2 -11 -8 -25 -12 -32 -9 -7 3 -13 1 -13 -5 0 -18 29 -21 39
-4 9 15 10 14 11 -5 0 -16 -6 -23 -19 -23 -10 0 -21 -6 -24 -14 -6 -15 -47
-29 -47 -15 0 5 -5 9 -10 9 -6 0 -10 -8 -8 -17 2 -12 -3 -18 -14 -17 -10 1
-18 -2 -18 -7 0 -5 -11 -16 -25 -25 -20 -13 -28 -14 -40 -4 -13 10 -15 9 -15
-9 0 -14 -6 -21 -20 -21 -11 0 -20 7 -20 15 0 8 -7 15 -15 15 -10 0 -15 -10
-15 -27 0 -21 -3 -24 -9 -14 -5 8 -7 21 -4 30 4 11 0 9 -10 -4 -19 -23 -22
-39 -6 -29 7 4 10 1 7 -7 -3 -8 -15 -13 -28 -11 -16 3 -30 -4 -42 -20 -9 -12
-18 -17 -18 -10 0 6 -5 12 -11 12 -6 0 -8 -7 -5 -16 3 -9 2 -12 -5 -9 -5 4 -7
14 -4 23 4 13 -2 17 -25 18 -32 2 -40 -10 -15 -20 17 -6 21 -36 5 -36 -5 0
-10 6 -10 14 0 7 -9 16 -20 19 -15 4 -22 -1 -26 -18 -3 -13 -20 -30 -37 -39
-28 -14 -33 -14 -43 0 -10 12 -13 11 -19 -8 -6 -18 -8 -20 -12 -6 -2 9 -11 19
-20 22 -11 4 -14 2 -9 -9 3 -8 1 -15 -4 -15 -6 0 -10 4 -10 10 0 5 -7 7 -15 4
-8 -4 -15 -10 -15 -16 0 -5 5 -6 10 -3 6 3 10 1 10 -4 0 -18 -19 -12 -32 9
-13 20 -58 28 -58 10 0 -5 8 -10 19 -10 10 0 25 -8 32 -17 13 -16 12 -17 -3
-4 -10 7 -18 10 -18 6 0 -4 -11 0 -25 9 -24 16 -25 16 -22 -5 2 -18 -4 -22
-35 -25 -21 -2 -66 -8 -100 -14 -35 -5 -75 -10 -90 -10 -25 0 -26 2 -21 43 7
51 7 51 31 38 16 -8 21 -7 26 5 4 11 0 14 -16 12 -16 -2 -22 3 -23 19 -1 18 2
20 16 13 12 -7 19 -5 23 7 4 9 4 18 1 21 -3 3 -5 0 -5 -6 0 -6 -7 -9 -15 -6
-8 4 -12 11 -9 16 4 6 0 15 -7 20 -10 7 -7 7 9 3 26 -7 29 7 6 29 -14 14 -13
18 5 38 22 23 27 38 12 38 -5 0 -12 -8 -14 -17 -4 -15 -6 -14 -12 5 -5 16 -13
21 -26 17 -16 -5 -19 -1 -19 22 0 23 -6 31 -30 40 -16 6 -30 19 -30 28 0 9 -7
15 -16 13 -10 -2 -19 3 -21 10 -3 7 1 10 11 6 9 -3 16 -1 16 4 0 16 -18 24
-32 15 -18 -11 -38 -13 -38 -3 0 4 -37 7 -82 7 -79 -2 -86 -4 -143 -42 -80
-53 -112 -115 -127 -247 l-11 -95 -86 25 c-193 56 -221 72 -221 134 0 37 -3
41 -40 55 l-40 16 203 101 c111 56 213 109 227 119 29 20 35 21 62 6z m203
-209 c10 -12 25 -18 32 -15 8 2 11 0 8 -5 -3 -6 2 -13 12 -17 34 -13 47 -35
50 -87 5 -60 -18 -105 -69 -136 -72 -43 -172 -6 -203 74 -31 80 -6 149 67 185
54 26 80 27 103 1z m-742 -134 c151 -73 353 -139 522 -172 115 -22 177 -27
350 -31 171 -4 213 -8 228 -21 9 -8 17 -11 17 -6 1 5 8 -2 16 -16 15 -24 15
-21 0 28 -5 13 -3 22 3 22 6 0 11 -4 11 -10 0 -5 8 -10 18 -11 10 0 12 -3 5
-6 -7 -2 -13 -11 -13 -19 0 -9 4 -12 10 -9 6 4 7 -1 3 -11 -5 -14 -3 -16 13
-10 13 5 16 4 8 -3 -5 -6 -72 -16 -147 -22 -320 -26 -741 53 -1044 196 -40 19
-75 35 -79 35 -3 0 -37 19 -75 43 l-68 42 47 17 c26 9 51 17 55 17 5 1 59 -23
120 -53z"/>
<path d="M3608 3723 c-144 -215 -206 -296 -294 -384 -88 -89 -101 -119 -53
-119 36 0 184 160 294 318 129 186 129 186 122 205 -11 28 -42 19 -69 -20z"/>
<path d="M4021 3724 c-30 -25 -123 -136 -167 -199 -11 -17 -38 -55 -59 -85
-57 -83 -145 -180 -192 -214 -44 -31 -56 -62 -27 -73 50 -19 161 98 352 371
30 42 55 76 56 76 2 0 17 -7 34 -15 21 -11 52 -15 94 -13 55 3 63 5 63 23 0
14 -16 28 -58 49 -56 28 -57 29 -40 48 13 14 15 23 7 35 -16 26 -29 26 -63 -3z"/>
<path d="M3835 2493 c-120 -90 -176 -144 -173 -167 5 -37 37 -31 87 16 25 25
76 69 114 98 70 56 79 73 49 89 -13 7 -31 -1 -77 -36z"/>
<path d="M2754 925 c-4 -8 -3 -26 0 -39 5 -20 1 -24 -24 -30 -33 -6 -35 -12
-20 -51 9 -23 15 -27 41 -23 25 4 33 0 42 -19 11 -24 18 -26 55 -16 21 5 23
10 18 38 -6 30 -4 34 23 43 28 10 29 13 21 44 -6 18 -10 34 -10 36 0 2 -15 0
-34 -3 -29 -6 -35 -4 -41 14 -8 25 -62 30 -71 6z"/>
<path d="M2455 4161 c-27 -10 -100 -42 -161 -73 l-111 -55 -23 34 c-12 18 -30
33 -40 33 -26 0 -125 -69 -223 -155 -47 -41 -88 -79 -92 -84 -3 -6 5 -26 17
-44 41 -61 130 -167 139 -167 6 0 40 28 77 63 95 87 119 107 183 149 78 51
242 132 312 154 67 21 72 36 32 114 -28 56 -36 58 -110 31z m77 -64 l16 -33
-42 -17 c-199 -77 -309 -143 -462 -274 -33 -29 -64 -50 -67 -46 -4 3 -7 -2 -7
-13 -1 -20 -18 -2 -95 92 l-30 37 65 60 c69 63 181 147 197 147 5 0 24 -16 42
-35 l32 -36 67 38 c115 64 219 110 253 112 8 1 22 -14 31 -32z"/>
</g>
</svg>
